<?xml version="1.0" encoding="UTF-8"?>
<svg version="1.1" viewBox="0 0 2000 2000" width="1280" height="1280" xmlns="http://www.w3.org/2000/svg">
<path transform="translate(0)" d="m0 0h2e3v2e3h-2e3z" fill="#FBFCEB"/>
<path transform="translate(1036,364)" d="m0 0h13l17 3 18 6 14 9 10 9 9 9 9 14 8 17 4 15 1 13v71l-1 21-2 4h-2v2l-7 1-6-4-2-8v-15l-5 3-5 6-1 2v12l2 4v3h2l4 4 6 3h12l8-4 5-6 2-5v-9l-6-11-2-2 1-25 26-1h57l15 1 1 2 5 56 5 58 6 50 11 125 6 55 4 44 2 26-3 8-9 8-5 2h-441l-9-3-5-3-4-6-1-4v-11l10-103 8-72 11-112 9-82 4-38 93-1 2 2 1 23-6 9-2 5v8l3 8 8 7 3 1h13l8-3 6-10 1-7-2-7-6-8h-3v9l-1 10-4 5-5 1-7-3-2-3-1-28v-38l1-39 5-19 8-16 12-16 12-11 15-10 11-5 20-5z" fill="#01332B"/>
<path transform="translate(1038,385)" d="m0 0h9l17 4 12 5 11 7 10 9 9 12 7 14 4 12v59h-78v51l-1 200-1 10-11 10-5 2-2 4-9 7-3 3-11 9-14 12-16 13-15 13-6 5-9 7-10 9-11 9-15 13-14 11-10 10-4 2-3 3-6 5-6 4-9 8h-2v2l-8 5-4 3h-2v2h431v1h-441l-9-3-5-3-4-6-1-4v-11l10-103 8-72 11-112 9-82 4-38 93-1 2 2 1 23-6 9-2 5v8l3 8 8 7 3 1h13l8-3 6-10 1-7-2-7-6-8h-3l-1-3v-17l1-48 4-21 4-12 6-10 8-11 6-6h2l2-4 8-6 18-7z" fill="#3B7D64"/>
<path transform="translate(452,615)" d="m0 0h16l41 3 30 4 26 5 24 7 15 6 25 12 14 9 18 14 19 19 11 14 10 15 12 23 7 18 5 20 3 19 1 11v29l-1 9 5 2 5 4 7 4 9 7 9 6 1 5-4 6-5-1-19-12-8-6-9-5v-2l-4-1-3-1-14 8-24 14-30 15-26 8-21 3h-26l-24-4-20-6-23-11-16-9 1-3 21-10 19-11 13-10 11-11v-3l-17-9-18-12-10-9-15-15-8-11-10-14-10-15-45-75-14-21-7-11-1-5 13-9 12-4 13-2z" fill="#72B282"/>
<path transform="translate(1596,616)" d="m0 0h49l16 3 10 4 9 7 1 4-12 17-14 23-11 18-10 17-12 20-9 14-10 16-9 12-8 11-3 4h-2v2l-5 5-12 11-16 11-17 10-5 2 2 5 6 7 13 10 14 9 28 14 5 2-3 3-27 15-19 7-21 5-18 2h-24l-25-4-24-8-27-14-23-13-15-7-5 1-11 7-16 11-11 6-2 2h-3l-4-7v-4l16-11 15-10 4-3v-45l4-25 8-25 7-17 10-18 11-16 13-16 18-18 14-10 14-9 30-15 24-8 27-6 23-4z" fill="#72B182"/>
<path transform="translate(788,1219)" d="m0 0 4 2 8 20 19 49 28 72 19 49 7 16 5 8 4 2 2-6 15-30 10-19 18-35 10-19 18-35 17-33 14-27 2-3-3-1-41 1-16 4-13 7-6 5-7 10-6 16-5 21-2 2h-5l-1-3v-36l-2-35 3-1h160l3 1-1 6-9 19-10 19-8 15-8 17-2 2-2 5-8 16-6 10-11 23-10 18-11 23-6 10-11 23-6 10-1 3 38-1 16-3 10-4 10-7 8-7 8-13 5-14 4-18 3-3 5 1 1 65 5-5 6-9 8-18 15-38 6-16 12-31 32-81 7-17 1-1 21-1 3 5 6 14 16 42 11 28 19 49 16 41 10 25 5 10v2h-2v4l12 2 2 4-2 2h-23l-35-4-2-2h-9l-10 4h-7l1-4h3v-2l8-4 1-5-4-16-17-47-1-4-70 1-12 34-3 12-1 7v8l3 7 5 4 13 4 6 2 1 4-2 2h-307l-1-5 2-2 15-3 4-3 1-5-4-16-17-47-3-9v-5h-2l-17-46-11-30-2-5-2 4-4-1-1-9 15-38 4-8z" fill="#03362D"/>
<path transform="translate(1331,1220)" d="m0 0h22l5 10 3 10 5 11 13 34 18 46 19 49 14 36 3 7 6 11 7 5h7l6-4 3-8 1-16v-148l-1-23-3-6-6-4-13-3-1-6 9-1h106l21 3 15 4 15 7v2l4 1 7 6 7 10 4 10 1 4v18l-4 15-8 12-6 7-11 8-10 5-13 4-12 1v2l7 1 15 4 14 7 9 9 7 14 7 28 2 12 5 15 4 6 8 1 10-5h4v5l-11 9-10 5-14 3h-12l-12-2-12-6-5-5v-2h-2l-5-11-5-22-6-31-4-15-5-10-6-5-5-2-12-1h-13v88l3 6 4 3 14 3 2 2v4l-3 1h-182l-2-1v-5l13-3 7-3 2-3-1-10-12-34-8-22-1-7-3-1v-8h-2l-17-47-11-29-1-6h-4l-1 5h-1v-11l8-20 8-21z" fill="#03362D"/>
<path transform="translate(530,1220)" d="m0 0h69l20 3 16 5 11 6 10 9 6 8 4 10 1 5-1 15-5 12-7 9-9 9h-2v2l-8 4-4 3-15 5-6 1v2l6 1 23 5 14 6 11 7 9 9 7 11 3 10v20l-4 13-6 10-4 5-5 4-10 7-16 7-18 4-8 1h-123l-2-2 1-4 1-1 15-3 5-6 1-5 1-19v-148l-1-21-4-6-8-4-9-2-2-3v-3z" fill="#05372E"/>
<path transform="translate(545,635)" d="m0 0 3 3v3h2l4 10 8 16 3 5 5 13 4 8 12 32 3 19 3 12 1 3 5 2 8 7 16 11 15 11h4l-1-21-5-45-2-16-5-19-11-24-1-4 8 8 4 8 3 3 3 7 8 16 5 12 3 10 3 12 2 15 2 13v38l21 14 14 9 1-26v-42l2 2 5 12 4 18 1 7v39l14 9 8 4 4 4 7 5 7 4 9 7 9 6 1 5-4 6-5-1-19-12-8-6-9-5v-2l-4-1-3-1-14 8-24 14-30 15-26 8-21 3h-26l-24-4-20-6-23-11-16-9 1-3 21-10 19-11 13-10 11-11v-3l-17-9-18-12-10-9-12-12v-2l12-3 17-3 9-1h16l16 3 19 6v-2l-7-5-4-5-16-14-16-12-6-5 1-2h2l-1-4-4-2v-2l-4-2-11-9-4-2v-2l-4-2-13-10v-2l-4-2-3-3-3-1-5-5-7-6-8-7-8-8-8-7-17-17-8-7-1-3 5 2 11 8 36 23 11 8 3 2v2l4 1 2 3 5 3 8 6v2l4 2 8 5v2l4 1v2l5 2 20 15 11 8 12 9 3 1-5-21-5-13-5-15-3-14-3-9-6-17-2-3v-7h-2l-2-5z" fill="#4B906E"/>
<path transform="translate(1533,634)" d="m0 0 1 3-7 20-7 25-6 21-5 14-8 25-1 4 5-2v-2l11-8 12-9 11-8 11-9 5-3h2l1-3 4-1 1-3 16-12 5-2v-2l10-7 3-3h2l1-3 6-3 10-7 4-1 1-2 8-4 5-2v-2l9-5 7-4-2 4-11 11-8 7-11 11-8 7-15 13-9 7-16 13-3 1v2l-8 6-10 8-11 9-14 10-11 9-8 6-7 5-5 5-6 7-2 5h-5l-1 1 8 1 9-1 10-4 13-4 5-1h25l26 4v2l7 1-1 4-5 5-12 11-16 11-17 10-5 2 2 5 6 7 13 10 14 9 28 14 5 2-3 3-27 15-19 7-21 5-18 2h-24l-25-4-24-8-27-14-23-13-15-7-5 1-11 7-16 11-11 6-2 2h-3l-4-7v-4l16-11 27-18 11-8 5-3 1-34 5-30 3-9h2l1 31 1 16v15l9-5 17-13 7-4 1-42 6-28 9-30 9-17 4-7 1-4h2l1-6 1-2h2l1-5 6-9 2 1-9 20-7 22-5 27-3 25-2 21-2 23h2v-2l10-6 11-8 13-9 12-9 3-3 2-19 5-18 4-8 10-27 3-9 4-6 3-7 4-10 4-8 3-7z" fill="#4B906E"/>
<path transform="translate(698,926)" d="m0 0h21l21 3 17 5 12 6 9 5 8 3v4l-8 16-8 15-7 10-9 12-17 17-12 9-16 8-13 5-17 6-22 5-36 5-29 2-28-1-15-2-1-1 1-16 5-18 5-12 9-16 8-13 14-15 9-8 11-8 17-9 20-8 22-6z" fill="#4A8F6D"/>
<path transform="translate(1375,926)" d="m0 0h18l25 4 24 8 29 14 13 10 13 12 9 10 10 15 7 14 6 19 4 17v10l-3 1-45 2-44-4-23-4-23-6-21-8-16-8-10-7-6-5v-2l-4-2-5-5v-2l-3-1-10-14-1-3h-2v-3h-2l-6-12-6-9-8-17v-2l17-8 12-6 13-4 17-3z" fill="#4A8F6D"/>
<path transform="translate(1442,1220)" d="m0 0h112l21 3 15 4 15 7v2l4 1 7 6 7 10 4 10 1 4v18l-4 15-8 12-6 7-11 8-10 5-13 4-12 1v2l7 1 15 4 14 7 9 9 7 14 7 28 2 12 5 15 4 6 8 1 10-5h4v5l-11 9-10 5-14 3h-12l-12-2-12-6-5-5v-2h-2l-5-11-5-22-6-31-4-15-5-10-6-5-5-2-25-2v-1l23-1v-2l-23-1-3-2v-87l3-10 4-6 6-3 8-1 3-2-74-1-24-1-1 3v-4z" fill="#04372E"/>
<path transform="translate(1038,385)" d="m0 0h9l17 4 12 5 11 7 10 9 9 12 7 14 4 12v58h-151l-1-2 1-48 2-12 4-12 6-10 8-11 6-6h2l2-4 8-6 18-7z" fill="#FBFCEB"/>
<path transform="translate(1331,1220)" d="m0 0h22l5 10 3 10 5 11 13 34 18 46 19 49 14 36 3 7 6 11 7 5h7l4-1-2 6-7 3h-92l-2-2 3-3h3v-2l10-2 5-5-1-10-12-34-8-22-1-7-3-1v-8h-2l-17-47-11-29-1-6h-4l-1 5h-1v-11l8-20 8-21z" fill="#03362D"/>
<path transform="translate(1156,1219)" d="m0 0 4 2 8 20 19 49 28 72 19 49 8 18 2 6h-2v4l12 2 2 4-2 2h-23l-35-4-2-2h-9l-10 4h-7l1-4h3v-2l8-4 1-5-4-16-17-47-2-7h-58l-1-2 13-2 44-1 1-2h-2l-17-46-11-30-2-5-2 4h-4l-1-10 15-38 4-8z" fill="#04362D"/>
<path transform="translate(788,1219)" d="m0 0 4 2 8 20 19 49 28 72 19 49 7 16 7 11-2 5-6 1-2 2h-48l-31 1 1-5 7-2 9-2 4-3 1-5-4-16-17-47-3-9v-5h-2l-17-46-11-30-2-5-2 4-4-1-1-9 15-38 4-8z" fill="#04362D"/>
<path transform="translate(1292,303)" d="m0 0 4 2 7 11 16 24 12 21 7 17 5 18 2 13v11l-3 15-2 6 17-5 17-3h8l16 4 16 6 16 8 16 7 15 4v4l-12 10-14 7-20 6-11 2h-14l-15-4-16-8-10-9-6-9-6-12v-3l-4 1-7 8-9 9-12 16-9 13-4 1-1-5 7-12 9-12 8-10 7-7 8-6v-3l-14-10-8-6-8-8-7-11-8-20-3-20v-25l3-18 5-15z" fill="#3C7E64"/>
<path transform="translate(789,304)" d="m0 0 3 1 7 30 1 7v18l-3 18-4 15-7 14-8 10-7 7-22 14 24 24 9 12 9 14 1 6-5-1-20-26-15-16-4-5-4-2-2 9-3 7-4 6-5 6-10 8-12 6-19 5h-15l-19-4-19-8-6-4-12-11v-2l17-4 13-5 19-10 19-7 20-3 11 1 17 4 6 1-2-9v-28l4-19 5-13 13-25 14-22 10-14z" fill="#135548"/>
<path transform="translate(698,926)" d="m0 0h21l21 3 17 5 12 6 9 5 8 3v4l-8 16-8 15-7 10-9 12-17 17-12 9-16 8-13 5-17 6-22 5-14 2h-15l4-2 20-4 15-4 9-3h2v-2l16-9 6-1 1-3 6-3 9-8 4-5 1-2 4-2 6-7 1-2h3l2-6 2-3h2l2-8 7-14 1-3-4 2-5 2-16 4-19 6-15 4-3 2-5 17-6 12-8 10-7 7-6 2v2l-5 2-12 1 1-3 9-6 7-7 3-5 3-3 6-10 6-16-15 6-10 2-18 5-11 5-14 5-19 5-8 2h-5l2-4 19-11 40-16 11-4 5-1v-2l-7-2-11-6-6-2v-2l-9-2-3-2-6-2-1-3h11l13 2 23 7 13 5 1 1h7l22-7 2-1h6l-1-4-5-2-9-5v-2l-5-2-9-5-7-3-10-4-9-3v-2l5-1v-2l12-3z" fill="#02352C"/>
<path transform="translate(1375,926)" d="m0 0h18l21 3 1 2 8 2 2 2-10 6-19 10-7 4-16 10 4 2 16 4 15 4h5l9-5 17-6 15-3h15l-1 3-13 5-23 12h-2v2h3v2l11 2 12 5v2l5 1 12 5 11 5 7 3 10 5 5 3v2l-11-1-19-5-23-8v-2l-11-2-17-5-8-2v-2l-9-2-2-1 6 15 6 11 3 3 2 4 8 7 3 3 6 4 23 6 1 2h-11l-1-1-15-3-15-5-8-5-11-14-5-9v-2h-2l-4-11-1-9-17-4-19-6-10-3-12-4 8 16 6 11 7 11 11 12 9 9 15 10 12 6 20 7 16 4 1 2h-9l-15-3-7-2-12-2-21-8-16-8-10-7-6-5v-2l-4-2-5-5v-2l-3-1-10-14-1-3h-2v-3h-2l-6-12-6-9-8-17v-2l17-8 12-6 13-4 17-3z" fill="#04372E"/>
<path transform="translate(545,635)" d="m0 0 3 3v3h2l4 10 8 16 3 5 5 13 4 8 12 32 3 19 3 12 1 3 5 2 8 7 16 11 15 11h4l-1-21-5-45-2-16-5-19-11-24-1-4 8 8 4 8 3 3 3 7 8 16 5 12 3 10 3 12 2 15 2 13v38l21 14 14 9 1-26v-42l2 2 5 12 4 18 1 7v39l14 9 8 4 4 4 7 5 7 4 9 7 9 6 1 5-4 6-5-1-19-12-8-6-9-5v-2l-4-1-2-1v-2l-5-2-11-8-16-10-18-11v-2h-3v-2l-5-1-16-11-15-10-11-8-11-7-14-10-19-14-13-10-7-5v-2l-4-2-11-6v-2l-4-2-11-9-4-2v-2l-4-2-13-10v-2l-4-2-3-3-3-1-5-5-7-6-8-7-8-8-8-7-17-17-8-7-1-3 5 2 11 8 36 23 11 8 3 2v2l4 1 2 3 5 3 8 6v2l4 2 8 5v2l4 1v2l5 2 20 15 11 8 12 9 3 1-5-21-5-13-5-15-3-14-3-9-6-17-2-3v-7h-2l-2-5z" fill="#052F2D"/>
<path transform="translate(1533,634)" d="m0 0 1 3-7 20-7 25-6 21-5 14-8 25-1 4 5-2v-2l11-8 12-9 11-8 11-9 5-3h2l1-3 4-1 1-3 16-12 5-2v-2l10-7 3-3h2l1-3 6-3 10-7 4-1 1-2 8-4 5-2v-2l9-5 7-4-2 4-11 11-8 7-11 11-8 7-15 13-9 7-16 13-3 1v2l-8 6-10 8-11 9-14 10-11 9-8 6-15 11-5 4-5 3h-2v2l-14 9-3 3-6 4h-3v2l-10 5h-3l-1 3h-2v2h-2v2l-7 4-5 4-9 5-12 8-15 11-7 4-14 10-11 8-18 12-11 6-2 2h-3l-4-7v-4l16-11 27-18 11-8 5-3 1-34 5-30 3-9h2l1 31 1 16v15l9-5 17-13 7-4 1-42 6-28 9-30 9-17 4-7 1-4h2l1-6 1-2h2l1-5 6-9 2 1-9 20-7 22-5 27-3 25-2 21-2 23h2v-2l10-6 11-8 13-9 12-9 3-3 2-19 5-18 4-8 10-27 3-9 4-6 3-7 4-10 4-8 3-7z" fill="#052F2D"/>
<path transform="translate(740,572)" d="m0 0h18l11 4 10 6 8 8 5 9 1 9-3 7-1 4 4 7 10 16 2 5v7l-6 11-8 11-7 7-14 7-6 2-7 1h-18l-12-3-14-7-10-8-5-6-3-7-2-3-6 1-8-7-3-3v-2l10-6 4-5 3-7 2-1h10l1 3v9l4 6 7 3h7l8-7 7-7 4-3 4 1 8 7 8 6 4 1 13-3 6-5 1-2v-10l-4-6-3-1h-21l-1-13-3-5-6-3h-7l-6 5-1 2v9l2 7-8-1-3-1h-19l-13 1-1-4 5-13 8-14 7-7 11-7 11-4z" fill="#73B282"/>
<path transform="translate(1117,1268)" d="m0 0 3 4 1 3 2 1 1-5 3 2 7 21 13 35 8 21v3h2l-1 3-44 1-10 1-2 1h19l39 1 1 3-70 1-12 34-3 12-1 7v8l3 7 5 4 13 4 6 2 1 4-2 2h-307v-1l6-1 24-1h48l4-3 4 1 1-7 3 1 2-6 2-2v6l4 2 2 2 4 1v2l29 2 8-1h2l1-5 1 2 38-1 16-3 10-4 10-7 8-7 8-13 5-14 4-18 3-3 5 1 1 65 5-5 6-9 8-18 15-38 6-16 12-31 17-43z" fill="#0D4A3E"/>
<path transform="translate(1040,107)" d="m0 0 4 2 8 10 15 25 6 14 6 19 5 22 1 7v11l-14 15-9 9-11 9-9 8-4-2-8-8-8-7-20-20-4-6v-11l3-20 6-20 7-16 8-16 16-22z" fill="#236A54"/>
<path transform="translate(535,493)" d="m0 0 19 3 21 5 21 7 12 5 12 7 6 5v2l4 2 8 9 8 15 4 14 3 18v7l-14 1h-28l-15-3-13-6-10-7-5-4-7-8-10-15-6-12-8-27-3-17z" fill="#064338"/>
<path transform="translate(1456,797)" d="m0 0 2 1-2 4-11 8-3 1-1 3-11 8-2 3 13-1h51l15 1v1l-9 1v3l12 1v2l-13 2 3 3h-14v2l13 2h2v2l6 2 7 7v2h-3l1 2h-2l3 3v2l9 2 24 8 10 2 1 2h-14l-11-1-11-2-19-3-25-7-15-3h-13l-1 1 6 2 10 7 17 13 11 7 1 2h-20l-13-3-8-2v2l5 1v2l4 2 2 5-5 2-8-1-19-7-25-13-23-13-15-7-3-2 18-13 7-4 18-13 11-7 7-4 5-4h3v-2h2v-2l3-3 10-4 3-1v-2z" fill="#4B8F6D"/>
<path transform="translate(1537,493)" d="m0 0h4l-1 12-5 21-4 12-5 12-7 12h-2l-2 4-12 12-11 7-17 6-14 2h-20l-14-1v-9l3-20 5-16 6-11 14-14 11-7 15-7 24-8z" fill="#07453A"/>
<path transform="translate(1351,287)" d="m0 0 3 1 7 10 10 17 8 16 4 11 1 8v27l-3 16 17-5 6-1h13l17 3 31 12 11 3v4l-6 7-12 9-8 4-11 3h-26l-10-3-11-8-7-7-8-13-16-8-8-6-7-8-6-14-3-12-1-19 2-14 8-24z" fill="#3D7F65"/>
<path transform="translate(730,286)" d="m0 0 3 1 7 16 4 17 1 7v19l-2 13-4 13-6 10-10 9-14 8-4 2-10 13-10 10-12 6-7 2-16 1-13-2-10-4-9-6-10-10-3-4v-2l14-3 25-10 14-4 7-1h15l16 4 6 3-4-20v-22l3-16 6-15 8-13 10-15z" fill="#3D7F65"/>
<path transform="translate(1333,967)" d="m0 0 17 4 10 4 26 7 5 2 4 15 1 5h2l6 11 8 10 3 4 10 5 20 6 7 1 1 1h10l-16-4-8-3-8-5-5-5-1-3-4-2-3-5-5-8-7-16v-3l11 3v2h4v2l6 2 8 5 4 2v2l4 2 12 10 11 7 13 8 14 6 6 2 15 3 16 2 2-2 1 5v10l-3 1-45 2-44-4-23-4-16-4v-1l11 1 6 2 10 2h8l-23-6-19-8-11-6-12-9-13-13v-2l-3-1-6-8-5-9-7-12-5-10z" fill="#71B081"/>
<path transform="translate(749,965)" d="m0 0 3 1-4 9-5 10-2 6-4 4-2 5h-3l-2 5-4 2-2 4h-3l-2 5h-2l-2 4-9 8-5 2-3 3-10 4-8 5h-2v2l-18 6-12 3-16 3 5 1v1l-16 2-29 2-28-1-15-2-1-1 1-16 2-4 2 6 7 1 20-3 18-5 11-5 14-9 11-9 14-12 3-3 8-4 2-2 12-4h2l-1 5-6 15-6 9h-2l-2 5-10 10-5 3h-2l1 2 10-1 5-1v-2l8-5 7-7 9-14 5-14 3-9 7-3 20-6 25-7 5-1z" fill="#72B182"/>
<path transform="translate(1031,990)" d="m0 0h17l19 5 24 10 6 2 13 1 15-3 21-5h15l10 3 8 6 5 10-3 7-5 4-6-1-12-6-4-1h-13l-15 4-13 4h-16l-11-3-24-9-19-4h-9l-18 4-25 10-8 2h-12l-17-5-11-3h-19l-9 5-4 3-7-1-5-6-1-5 4-8 7-6 12-4 12-1 20 4 16 4h13l17-6 17-7z" fill="#5BA277"/>
<path transform="translate(1358,584)" d="m0 0 4 1 7 10 6 5 10 1v3l-5 5-5 6-14 3-9 7-1 1v5l9 10 4 2 8 2 3 6 1 7-6 18-2 7h-3l-2-6-8 6-10 5-10 3h-11l-10-3-8-5-5-5-5-6-4-10-1-12 5-1h8l6-4 4-5v-10l-6-9-5-4-11-3-9-2v-4l8-4 4-5 4-12 9 3 10 7 4 4 6-1 4-2h10l5 2 7-8z" fill="#4D926F"/>
<path transform="translate(565,1333)" d="m0 0h13l17 2 10 3 8 5 5 4 7 10 4 17v23l-4 17-6 12-7 7-11 5-10 2h-14l-8-3-4-5-2-10v-20l1-68z" fill="#FCFDEC"/>
<path transform="translate(1312,1266)" d="m0 0h1l1 7 1-4h4l18 49 11 30v3h2l1 6-1 2 3-1 1 7-2-1-69-1-3 10-9 25-4 20v7l3 9 5 2 13 4 6 2 1 5-2 1h-133l-1-5 2-2 11-1-3 1v3h6l11-4h8l2 2 35 4h23l1-3-7-2-6-2v-4h2l-1-4 5-5 9-19 13-34 11-28 16-41z" fill="#11483A"/>
<path transform="translate(749,1268)" d="m0 0 3 4-1 3 4 1 1-5 3 2 7 21 16 43 5 13v3h2l2 10-70 1-12 34-3 12-1 7v8l3 7 5 4 13 4 6 2v5l-1 1h-62l-2-1 2-6 10-6 8-11 6-12 17-44 12-31 11-28 13-33z" fill="#0F4538"/>
<path transform="translate(1132,250)" d="m0 0 17 4 8 5 7 8 4 9 2 5 6 3 6 12 2 8v9l2-1 4-7 7-7 14-9 11-5 10-2h16l-1 4-10 10-9 6-9 1-5-1h-9l-8 6-14 19-8 15-5 14 5-3 7-8 12-11 14-10 12-5 25-7 19-4-3 9-7 14-7 10-2 3h-2l-1 3-8 6-10 5-16 4-8 1h-11l-21-3-14-11-7-7-6-8-4-8-3-11v-6l5 1 17 9 5 6 5 14h2l6-14 2-5 1-11-3-15-4-6-1-1-20-3-6-3-5-4-5-7-2-7v-12z" fill="#72B282"/>
<path transform="translate(947,252)" d="m0 0h5l1 2-2 13-3 6-5 6-12 6-17 3-3 5-2 6-2 12v7l8 17 2 5h2l8-17 5-4 15-8 5 1-3 11-7 14-12 13-9 6-3 4-20 3h-19l-17-4-14-7-13-13-8-13-5-12-1-7 11 3 35 11 16 8 11 8 10 9 4 4v2l6 3-6-17-8-14-13-16-9-7h-7l-3 1h-14l-8-5-9-10-1-4 1-1h20l15 5 11 7 12 12 5 3 1-9 4-10 4-6 5-4 5-13 6-8 5-3z" fill="#5CA378"/>
<path transform="translate(1526,1228)" d="m0 0h18l10 3 8 6 4 5v2h2l4 12 2 14v20l-3 16-5 12-7 8-11 5-4 1-13 1h-13l-2-1-1-8 1-84 3-8 4-3z" fill="#FBFCEB"/>
<path transform="translate(1027,1032)" d="m0 0h23l16 4 19 8 13 6 17 5 6 1h8l14-3 13-5 5 2 3 4v6l-7 8-12 6-8 2h-26l-16-4-15-6-20-9-11-3h-18l-15 4-18 8-17 7-12 3h-17l-16-4-8-5-7-8 1-6 5-5 8 1 8 4 8 2h13l15-4 28-13 15-5z" fill="#5BA277"/>
<path transform="translate(672,262)" d="m0 0 5 4 8 16 4 10 3 14v14l-3 15-4 11-7 9-12 13-12 6-8 2h-14l-11-3-12-8-10-9-5-7 3-3 19-6 9-2 19-1 10 2-2-11v-21l5-19 13-24z" fill="#3D7F65"/>
<path transform="translate(1407,262)" d="m0 0 4 1 6 11 7 15 5 16 1 5v15l-4 14 10-2h13l17 3 20 6 2 1-2 4-11 12-10 7-13 5-11 1-12-2-12-6-12-12-9-14-5-14-1-4v-23l5-17 8-17z" fill="#3C7E65"/>
<path transform="translate(574,1228)" d="m0 0h16l10 4 7 8 4 9 2 9 1 21-2 17-5 15-6 8-7 5-10 2-20 1-1-2 1-85 3-8 4-3z" fill="#FBFCEB"/>
<path transform="translate(686,942)" d="m0 0h8l16 8 11 7 8 3 17-1 2 5-1 4-5 2-16 4-19 6-15 4-3 2-5 17-6 12-8 10-7 7-6 2v2l-5 2-12 1 1-3 9-6 7-7 3-5 3-3 6-10 6-16-15 6-10 2-18 5-11 5-14 5-19 5-8 2h-5l2-4 19-11 40-16 11-4 5-1v-2l-7-2-11-6-6-2v-2l-9-2-3-2-6-2-1-3h11l13 2 23 7 13 5 1 1h7l22-7 2-1h6l-1-4-5-2-9-5v-2l-5-2-2-1-1-6z" fill="#05312E"/>
<path transform="translate(469,735)" d="m0 0h33l27 5v3l7-1 12 10 15 11 9 8v2l4 2 11 11-2 1-19-6-16-3h-16l-16 2-23 5-14-18-16-24 2-4h2l-3-3z" fill="#72B182"/>
<path transform="translate(1367,953)" d="m0 0h8l1 3-5 5-1 3h2l1 2 18 4 17 5h5l9-5 17-6 15-3h15l-1 3-13 5-23 12h-2v2h3v2l11 2 12 5v2l5 1 12 5 11 5 7 3 10 5 5 3v2l-11-1-19-5-23-8v-2l-11-2-17-5-8-2v-2l-9-2-2-1 6 15 6 11 3 3 2 4 8 7 3 3 6 4 23 6 1 2h-11l-1-1-15-3-15-5-8-5-11-14-5-9v-2h-2l-4-11-1-9-17-4-19-6-20-6-1-8 4-3 9 2h9l8-4z" fill="#052F2D"/>
<path transform="translate(539,738)" d="m0 0 6 2 5 5 10 7 17 13 18 13 16 11 12 8 11 8 11 7 4 4-5 1 1 3-5-1-12-10-15-10-9-5-10-3h-7l-8 5-10 9-11 7-11 4h-16l-17-12-18-18v-2l12-3 17-3 9-1h16l16 3 19 6v-2l-7-5-4-5-16-14-16-12-6-5 1-2h2z" fill="#4B906E"/>
<path transform="translate(1e3 179)" d="m0 0 1 3h2l3 6 9 10v2h2l7 8 7 7 5 6v2l5-3 3-5 3-1 2-4 4-6 16-16 5-6 2 3 3 9 2 12v11l-14 15-9 9-11 9-9 8-4-2-8-8-8-7-20-20-3-4v-10l3-21z" fill="#08453A"/>
<path transform="translate(996,239)" d="m0 0 4 1 5 6 8 7 12 11 13 10 2 3 4-2 5-5 10-8 15-13 11-9 3-1-1 18-3 14-4 8-9 11-11 9-13 8-5 3-6-2-12-7-11-9-5-5v-2h-2l-5-9-3-7-2-17z" fill="#0A473B"/>
<path transform="translate(700,379)" d="m0 0 2 4 2 9v6h5l-5 5-11 13-8 8-12 6-7 2-16 1-13-2-10-4-9-6-10-10-3-4v-2l14-3 25-10 14-4 7-1h15l16 4 6 3-2-10z" fill="#3D7F65"/>
<path transform="translate(1534,510)" d="m0 0 3 3-1 10-5 15-5 12-7 12h-2l-2 4-12 12-11 7-17 6-5 1h-17l-18-1 2-7 9-6h2l1-3 5-3 5-5 5-2 1-3 6-4h2v-2l6-3 6-5 14-10 28-21 3-5z" fill="#03352D"/>
<path transform="translate(1335,325)" d="m0 0 2 2v13l2 18 5 15 6 10 9 8 14 7 5 3 9 14 11 10 10 5 7 2 15 2 1 1v5l-3 2h-8l-12-2-26-6h-8l-21 4-10 3h-3l2-10 2-11v-11l-3-17-6-20-7-15-2-9-5-8-3-12 5 3 1 1h5l4-6z" fill="#FEFEFC"/>
<path transform="translate(1292,303)" d="m0 0 4 2 7 11 16 24 12 21 7 17 5 18 1 13h-1l-2-10-4-3v2l-6-2-13-8-22-16-5-4-6-6-1 11h-1l-1-9v-25l3-18 5-15z" fill="#3D7F65"/>
<path transform="translate(1495,769)" d="m0 0 2 1-10 9-1 4-2 2-5 1 8 1 9-1 10-4 13-4 5-1h25l26 4v2l7 1-1 4-5 5-12 11-16 11-5 3h-14l-14-4-12-7-5-4-7-8v-2l-13-2-3-2v-2l-5 3h-2l-1 3-4-1 13-9h2v-2l10-6z" fill="#4B8F6D"/>
<path transform="translate(756,1271)" d="m0 0 3 2 7 21 16 43 6 17-1 1h-62l1-5 16-42 10-26z" fill="#FCFDEC"/>
<path transform="translate(1124,1271)" d="m0 0 3 2 7 21 13 35 9 24-1 2h-62l1-5 16-42 10-26z" fill="#FCFDEC"/>
<path transform="translate(1317,1272)" d="m0 0 3 1 8 20 17 47 4 11-1 4h-61l1-5 19-50 8-21z" fill="#FCFDEC"/>
<path transform="translate(1262,308)" d="m0 0h2l-3 9-7 14-7 10-2 3h-2l-1 3-8 6-10 5-16 4-8 1h-11l-21-3-6-5-1-3 4 1 1-5 4-4 2 1-1 7-1 4 5-3 7-8 12-11 14-10 12-5 25-7z" fill="#5CA378"/>
<path transform="translate(538,505)" d="m0 0h3l3 5 1 3 11 9 13 11 2 1v2l5 2 3 3 3 1v2l5 2 13 11 11 8 13 10 7 4 12 7 1 2 8 1v2l-13 2h-28l-15-3-4-3v-2l-5-2-6-3v-2l-4-2-8-6-9-12-5-10-4-5-4-13-2-9-2-10-5-1z" fill="#02342C"/>
<path transform="translate(947,252)" d="m0 0h5l1 2-2 13-3 6-5 6-12 6-17 3-3 5-2 6-2 12v7l8 17 2 5h2l8-17 5-4 15-8 5 1-3 11-7 14-12 13-9 6-1-3-4-2-1-10-1-4-3-1-5-12v-3l-4-2-6-7-4-5v-2l-5-2-3-2v-2l-6-2 7 7h-3l-4-3h-7l-3 1h-14l-8-5-9-10-1-4 1-1h20l15 5 11 7 12 12 5 3 1-9 4-10 4-6 5-4 5-13 6-8 5-3z" fill="#73B282"/>
<path transform="translate(789,304)" d="m0 0 3 1 7 30 1 7v18h-1l-1-8-3 5-7 9-12 11-14 11-8 5-12 6-2 4v32h-1l-1-5v-28l4-19 5-13 13-25 14-22 10-14z" fill="#3D7F65"/>
<path transform="translate(1414,930)" d="m0 0 8 1 22 8 27 13 13 10 13 12 9 10 4 7-3 4-8-7-9-9-8-6-11-9-1-4-16 2-15 3-17 6-9 5-9-1-13-4-18-4v-3l18-11 8-5 22-11 2-3-9-3z" fill="#59A076"/>
<path transform="translate(927,999)" d="m0 0 12 1 30 7h13l14-5 3 1 5 1-3 1 1 2h3l2-2 1 3h2v2l8-1 3 1 6 1 29 2v2l2 1-9-1-6-1h-9l-18 4-25 10-8 2h-12l-17-5-11-3h-19l-9 5-4 3-7-1-5-6-1-5 4-8 7-6 12-4z" fill="#5BA277"/>
<path transform="translate(653,933)" d="m0 0 4 1-5 1v2l9 2 10 4 9 4 12 7v2l6 2 8 5 1 4-8 2-22 7h-7l-12-5-18-6-19-5-11-1h-2l1 5-22 18-11 10-4 3h-2l1-4 6-9 12-13 10-9 11-8 17-9 20-8z" fill="#58A076"/>
<path transform="translate(942,577)" d="m0 0h13l8 4 1 3 4 2 5 8 2 1 1 3v14l-6 10-7 6h-2l-1 3-6 2h-13l-9-4-5-4-5-8-1-5v-15l5-9 7-7z" fill="#01342B"/>
<path transform="translate(706,433)" d="m0 0 11 1 17 4-4 1-9-1-1 1 6 2-1 4-4 2-2 4-2 3h-4v4l-27 9-23 7-5 1h-19l-7-1 2 3-4-2-12-11v-2l17-4 13-5 19-10 19-7z" fill="#3C7E65"/>
<path transform="translate(1018,1034)" d="m0 0h4l2 4 14 2 1 4-3-1v2h6l3 5 4 3-18 1-15 4-18 8-17 7-12 3h-17l-16-4-8-5-7-8 1-6 5-5 8 1 8 4 8 2h13l15-4 28-13z" fill="#5CA377"/>
<path transform="translate(1284,361)" d="m0 0 7 5v2l4 2 9 7 11 8 13 8 9 5v-2l4 2 2 5v6h2v11l-3 15-1 3-7 1-7-2-11-8-8-6-8-8-7-11-8-20-1-5z" fill="#135548"/>
<path transform="translate(653,741)" d="m0 0 2 1v2l5 1 15 8 17 8v-5h2v44l-1 21-1 5-5-2-24-16-7-5v-38z" fill="#4A8F6D"/>
<path transform="translate(884,1220)" d="m0 0h160l3 1-1 6-2 3-2-6h-55l-34 1-4 2 36 1v1l-41 1-16 4-13 7-6 5-7 10-6 16-5 21-2 2h-5l-1-3v-36l-2-35z" fill="#06392F"/>
<path transform="translate(587,790)" d="m0 0h7l12 4 18 11 16 13 9 6v2l-14-1-13-1h-27l-32 3-7 1-2 2-3-3-15-8-3-3 2-1h13l12-5 11-8 10-9z" fill="#73B282"/>
<path transform="translate(1473,787)" d="m0 0h2l3 3 13 3 7 8v2l4 2 11 7 8 3 9 2 11 1-3 3-10 6h-2l-1 4v-3l-18-2-15-1h-64l2-4 11-8 5-5 10-7 3-6 8-3 4-4z" fill="#73B282"/>
<path transform="translate(1351,287)" d="m0 0 3 1 7 10 10 17 8 16 4 11 1 8v27l-1 7h-1l-1-15-20-13v-2l-4-2-10-9-5-6-4-1v17h-1l-1-19 2-14 8-24z" fill="#3C7E65"/>
<path transform="translate(1039,1370)" d="m0 0 5 1 1 75-1 1h-41l-59-2-3-1v-2l5-1 30-1 11-1v-2l14-5 10-7 8-7 8-13 5-14 4-18z" fill="#0A3E33"/>
<path transform="translate(1436,337)" d="m0 0h13l17 3 20 6 2 1-2 4-11 12-10 7-13 5-11 1-12-2-12-6-7-7 1-5 3-2 1-3h2l1-4 6-9 1 2h5v-2z" fill="#3D7F65"/>
<path transform="translate(1363,760)" d="m0 0 16 1 5 2-5 25-2 14-1 34-10 7-13 9-2-3v-42l4-25 6-19z" fill="#59A176"/>
<path transform="translate(1422,755)" d="m0 0h1l-1 48-12 8-16 12-3 2h-3l-2-31v-31l-2-1 10-1z" fill="#498E6D"/>
<path transform="translate(632,705)" d="m0 0 2 3 7 61 1 21-5 1-16-12-16-11-10-8-4-4-3-12-3-19-5-13 1-2 5 12 2 4 12 7 14 5 13 4 7 1v-16l-2-15z" fill="#4A8F6D"/>
<path transform="translate(713,751)" d="m0 0h2l6 17 4 16 3 19 1 11v29l-1 8-1-2-5-1-17-11-1-5v-35l-3-17-4-14v-3l2 1 11-3 1-4-1-4z" fill="#4C916E"/>
<path transform="translate(1494,723)" d="m0 0 1 3-4 16-1 13-10 9-16 11-17 12-5 3h-2v2h-2v-12l2-17 2-26 1-5h1l-1 14 28-11 20-10h3z" fill="#498E6D"/>
<path transform="translate(734,453)" d="m0 0 4 4-1 7-7 8-10 8-12 6-19 5h-15l-19-4-19-8-5-5v-1l8 1h19l15-4 25-8 12-2 8-3 9-2z" fill="#145648"/>
<path transform="translate(750,224)" d="m0 0h9l3 3 1 3 7 1 5 6 1 9-4 3 2 4 2 7-5 7-4 3-7 3-7 2-7-3-4-4-6 2-5-5-3-5 1-6 3-3-2-6v-7l4-6 1-1h10l2-5z" fill="#145648"/>
<path transform="translate(1464,653)" d="m0 0 2 1-9 20-7 22-5 27-3 25-2 21-2 23-5 6-5 1-1 2-5 1v-41l6-28 9-30 9-17 4-7 1-4h2l1-6 1-2h2l1-5z" fill="#02352D"/>
<path transform="translate(1326,224)" d="m0 0h9l4 2 2 5h7l4 5 1 3v7l-3 3 3 6v6l-5 6-4 2h-7l-5 5h-8l-4-2-4-4-5-1-3-5v-7l3-5-2-5v-8l4-6 4-1 5-1z" fill="#155749"/>
<path transform="translate(1347,455)" d="m0 0 8 2 10 1 15 5 23 7 12 3 27 3 2 1v2l-15 6-19 5-6 1h-14l-15-4-16-8-10-9-4-6 1-8z" fill="#155749"/>
<path transform="translate(474,668)" d="m0 0 7 1 5 2 9 3 12 7 12 5 19 10 16 8 11 6 2-4 5 13 5 16 1 10-4-1-16-12-14-10-15-11-2-1v-2l-4-1v-2l-5-2-7-5v-2l-4-2-6-5-5-3v-2l-4-1v-2l-4-2-14-10z" fill="#498E6D"/>
<path transform="translate(1590,671)" d="m0 0h9l-5 5-8 6h-2v2l-9 6-12 9-3 3-5 4-6 4-10 8-11 8-13 10-8 6h-2v2l-5 3-2-1 4-9 8-27 2-5 1 2 26-12 18-8 16-8z" fill="#4A8F6D"/>
<path transform="translate(616,661)" d="m0 0 8 8 4 8 3 3 3 7 8 16 5 12 3 10 3 12 2 15 2 13v34l-1 3h-2l-2-2-4-1v-2l-8-2v-3l-2-1 3-1-1-21-5-45-2-16-5-19-11-24z" fill="#02352D"/>
<path transform="translate(426,638)" d="m0 0 5 2 11 8 36 23 11 8 3 2v2l4 1 2 3 5 3 8 6v2l4 2 8 5v2h-2l4 8 5 6v2l4 2 3 4 10 6 3 4 6 7 2 4-5-2-4-3v-2l-4-2-11-6v-2l-4-2-11-9-4-2v-2l-4-2-13-10v-2l-4-2-3-3-3-1-5-5-7-6-8-7-8-8-8-7-17-17-8-7z" fill="#05302E"/>
<path transform="translate(1454,961)" d="m0 0h15l-1 3-13 5-23 12h-2v2h3v2l11 2 12 5v2l5 1 12 5 11 5 7 3 10 5 5 3v2l-11-1-19-5-23-8v-2l-11-2-8-3-1-2-9-3v-2l-6-1-2-4-7-1-4-5-3-2h-14l-6-4v-2l-2-1h11l17 5h5l9-5 17-6z" fill="#06312F"/>
<path transform="translate(742,333)" d="m0 0h2v22l-4 15-5 9-7 8-13 9-4 2h-7l-5-25v-6l2-2 7-3 10-6 10-9z" fill="#125447"/>
<path transform="translate(1338,336)" d="m0 0 5 1 7 8 9 8 2 1v2l5 2 16 11v18l-1 1-2 10h-8l-12-6-10-9-6-10-5-15z" fill="#246B55"/>
<path transform="translate(705,504)" d="m0 0h16l16 5 8 6 5 8 2 12-1 6-1 1-14 1-14-2-12-6-6-9-2-8v-8l2-5z" fill="#3F8266"/>
<path transform="translate(1407,840)" d="m0 0h19l17 2 21 4 21 6 9 3 38 12 14 5 10 2 1 2h-14l-11-1-11-2-19-3-25-7-15-3v-2l-9-1-32-8-22-3v-4z" fill="#073430"/>
<path transform="translate(647,841)" d="m0 0h28l6 2v2l-35 7-5 2-14 3-21 6-16 4-21 5-27 4-16 1-2-2 21-6 15-6 36-11 18-5 12-3z" fill="#03372E"/>
<path transform="translate(607,824)" d="m0 0 19 1 12 3h6l1 2-1 3 2 1h-2v5h29l1 2-27 1-13 2h-8l-1-1-13-1-3-1v2l-4 2h-10l-8 4-5 3-5 2-3 3h-4l-6-2 1-5h3l1-3h2v-2l9-2-10-4v-2l6-1 1-5 2-4 3-1z" fill="#3A7D63"/>
<path transform="translate(1358,504)" d="m0 0h18l1 3v10l-5 12-7 7-11 5-5 1h-17l-3-2v-10l3-10 5-7 10-6z" fill="#3C7E64"/>
<path transform="translate(1117,1268)" d="m0 0 3 4 1 3 1 4-7 19-19 49-3 8 62-1 2-1-1 3-44 1-10 1-2 1h19l39 1 1 3-70 1-12 34-2-3v-6h-3l-2 9-1 2-2-1 1-5 11-28 6-16 12-31 17-43z" fill="#114A3C"/>
<path transform="translate(828,198)" d="m0 0 6 1 10 5 10 8 7 10 3 8v14l-3 5-1 1h-10l-9-4-8-7-5-8-2-11v-11z" fill="#73B282"/>
<path transform="translate(1031,990)" d="m0 0h17l19 5 7 3-1 6-7-2-4 1-1 5h-3l-1 2 9-3 1 4-1 2 4-1v2l7 1 4 4 6 2 1 6-10-3-19-7-3-2v-2h-12l-17-1-9-1-1-1h-7v-2h-2l-1-2-2 2-4-1v-2l-3-2 3-3 15-6z" fill="#4D926F"/>
<path transform="translate(1249,199)" d="m0 0h5l2 11v11l-3 10-7 10-11 7-8 2h-6l-2-2-1-5 1-14 3-9 7-9 7-6z" fill="#73B282"/>
<path transform="translate(1157,187)" d="m0 0 5 2 9 7 8 9 6 12 2 12-3 10-3 2-8-1-10-4-6-5-5-10-1-5v-14l3-10z" fill="#3E8065"/>
<path transform="translate(697,321)" d="m0 0h2l1 11 1 2-1 10-1 8v33l-5 1-4-2-1-3 1-5-2-10-1-2-4 1-5 4-1 4 3 5 1 3-2 1-40 5-2-4 8-5 2-1h8l2-5 10-6 13-14 5-8 4-12h2l1-6z" fill="#FEFEFD"/>
<path transform="translate(924,187)" d="m0 0 4 1 4 14v16l-4 9-6 7-10 6-5 2h-5l-3-4-2-8 1-13 6-12 9-10z" fill="#3E8065"/>
<path transform="translate(1337,375)" d="m0 0 3 4v3h2l3 6 2 10h2l3-2 7 1 5 3 2 4h2l4 4v2h2l4 7 1 6-3 3-4 1v2l12 1 8 4v1l-18-1-21 4-10 3h-3l2-10 2-11v-11l-3-17-4-14z" fill="#FCFDEC"/>
<path transform="translate(1459,826)" d="m0 0h37l2 1v3l12 1v2l-13 2 3 3h-14v2l13 2h2v2l6 2 7 7v2h-3l1 2h-2l3 4-6-1-21-6-8-3-18-5-23-4v-1h8l9 1 1-2-2-1v-2l-6-1-2-4 8-2z" fill="#3B7D64"/>
<path transform="translate(709,969)" d="m0 0 2 4-1 4 2 1-16 5-7 3-5 17-6 12-8 10-7 7-6 2v2l-5 2-12 1 1-3 9-6 7-7 3-5 3-3 6-10 6-16-15 6-10 2h-7l10-8 9-3 14-6 3-3 16-4 6-1 1-2h6z" fill="#02352C"/>
<path transform="translate(572,825)" d="m0 0h10v2h-3l-1 4-2 5-6 1v2l4 1 6 1 1 3-10 1v2l-5 5-2 3 8 1 4-1v-2l10-4 4-3 5-2h10l4-1v-2l17 1v3l-12 3-21 6-36 11-5 2h-5l2-1-1-3h-6l2-4 5 2 1-4 5-1v-2l2-1-3-1-5 2h-3l-2 2-1-3 1-4-1-2 3-5 3-3-4 3-2-1 11-11 2-3z" fill="#4A8F6D"/>
<path transform="translate(842,300)" d="m0 0h7l12 5 5-1 5-2 5 4 13 5 6 5 9 13 7 14 3 8v4l-4-2-13-13-14-10-16-8-15-5v-2l-5-2-9-8 2-4z" fill="#FEFEFD"/>
<path transform="translate(607,957)" d="m0 0 3 1 15 2v1l-16-1 2 3 7 2 7 3 3 1v2l7 2 11 6 6 2v2l-9 4-4-1-4-2-13 3-5 1-6 2-7-1v2h-2l-1 2-1-1-3 3-8 2-3-1-1-5h-2l1 4-1 2-4 1 3-10 4-6 10-9 12-9v-5l-2-1z" fill="#3B7D64"/>
<path transform="translate(1265,1411)" d="m0 0h2v14l3 9 5 2 13 4 6 2 1 5-2 1h-133l-1-5 2-2 11-1-3 1v3h6l11-4h8l2 2 35 4h23l1-3-7-2-6-2v-4h2l-1-4 5-5 3-6 2 3 3 4 2-2h4v-6l-1-3z" fill="#0D4A3E"/>
<path transform="translate(1524,777)" d="m0 0h25l26 4v2l7 1-1 4-14 2-7 2-11 3h-21l-15-2-10-2-12-1v-3l10-3 10-4z" fill="#02362D"/>
<path transform="translate(534,777)" d="m0 0h16l16 3 11 5 4 2-3 2-25 5-8 1h-16l-17-3-13-3-3-3v-2l12-3 17-3z" fill="#03372E"/>
<path transform="translate(942,501)" d="m0 0 2 3 2 48 4 4 6 1 5-3 1-2 1-17 2-4 5 4 5 8 1 8-4 10-4 5-8 3h-13l-6-3-7-8-2-6v-8l5-10 3-4 1-25z" fill="#FEFEFC"/>
<path transform="translate(820,394)" d="m0 0h7l5 3v8h8l3 3v10l-5 5-5 1-2 6-3 3-6 1-7-3-1-2v-7h-7l-3-3-1-8 3-5 2-2h7l1-7z" fill="#0E4C3F"/>
<path transform="translate(545,635)" d="m0 0 3 3v3h2l4 10 8 16 3 5 5 13 4 8 12 32 3 19 2 12-6-2-1-2-3-1-3-3v-2l-2-1h2l-5-21-5-13-5-15-3-14-3-9-6-17-2-3v-7h-2l-2-5z" fill="#064439"/>
<path transform="translate(1259,394)" d="m0 0 8 1 4 4 1 5 7 2 3 3-1 9-4 4-6 1 1 6-5 4-7 1-6-3-2-5 1-4-5 1-5-4-1-2 1-9 5-4h6v-6l3-3z" fill="#1A5C4C"/>
<path transform="translate(1533,634)" d="m0 0 1 3-7 20-7 25-6 21-5 14-8 25-2 4 1 2h-2v2l-5 3-6 7-2-1 4-4 2-19 5-18 4-8 10-27 3-9 4-6 3-7 4-10 4-8 3-7z" fill="#07453B"/>
<path transform="translate(885,1429)" d="m0 0h1v6l4 2 2 2 4 1v2l29 2 8-1h2l1-5 1 2 38-1 12-1-3 2-8 1-35 1v2l62 2 96 1v1h-307v-1l6-1 24-1h48l4-3 4 1 1-7 3 1 2-6z" fill="#35755A"/>
<path transform="translate(686,942)" d="m0 0h8l16 8 11 7 8 3 17-1 2 5-1 4-5 2-16 4-10 3h-6v-2l-2-1 2-2-2-1h-6l-1-2 6-2-1-4-5-2-9-5v-2l-5-2-2-1-1-6z" fill="#052F2D"/>
<path transform="translate(696,1424)" d="m0 0h2l5 5 2-4 3 7 5 4 13 4 6 2v5l-1 1h-62l-2-1 2-6 10-6 6-8 1 3 2 1v-2l5-2v-2z" fill="#145142"/>
<path transform="translate(539,738)" d="m0 0 6 2 5 5 10 7 17 13 18 13 16 11 12 8 11 8 11 7 4 4-5 1 1 3-5-1-12-10-15-10-9-5-3-5-6-1-8-4-3-2v-2l-4-2-2-4v-3l-5-1-5-3-3-3-9-5-14-11-6-5 1-2h2z" fill="#478C6B"/>
<path transform="translate(1116,531)" d="m0 0h3l2 21 4 4 7 1h2v-2h2l2-7 1-17 4 1 6 9 1 3v9l-4 8-7 6-5 2h-12l-9-5-1-3h-2l-3-7v-12l4-6z" fill="#FEFEFC"/>
<path transform="translate(550,837)" d="m0 0v3l-3 3-3 4 1 5v2l4-1 6-2 3 2-3 1v2l-5 2-1 3-5-1-2 3 7-1 1 6-24 8v1l-9-1 1-3-3 1-9-3h-7l1-3 26-14 16-12 7-4z" fill="#3D7F65"/>
<path transform="translate(511,1239)" d="m0 0 2 4 1 15 1-6h2v23l-1 36 1 4v40l1 28v22l-1 6v9l-3 10-3 2z" fill="#124039"/>
<path transform="translate(1246,1025)" d="m0 0 7 1 11 9 9 8 8 7 5 4 2 6-5 5-6 2-11-8-9-8-9-7-7-8 1-6z" fill="#73B282"/>
<path transform="translate(1389,982)" d="m0 0h5v2h3l1 6 2-3 5 2 3 5 9 19 4 4 2 4 8 7 3 3 6 4 23 6 1 2h-11l-1-1-15-3-15-5-8-5-11-14-5-9v-2h-2l-4-11-1-9h-2z" fill="#01322B"/>
<path transform="translate(831,1025)" d="m0 0 7 3 3 3-1 5-7 7-8 7-9 7-8 7-3 3-8-1-5-5 1-5 5-5 9-7 7-7 10-8z" fill="#5CA378"/>
<path transform="translate(1501,501)" d="m0 0h10l-2 3-4 1-1 2-9 1-2 2-4 5-2 6 1 4-2 2h-5l-1 3h-2v2l-4 4-5 7-4 1-2-4 2-7 7-7 2-6-5 2-5-1-2 5-8 6-2 4-2 1-2 4-4 3-4 4h-3l1-7 6-8 11-11 11-7 15-7z" fill="#06382F"/>
<path transform="translate(635,983)" d="m0 0 5 2-4 4-35 14-14 7-10 6h-3v-2l-4 1v-2l-2-1h2l1-6 2-3h2l1-6-1-1-1 2h-3l-2 4-5 5-2-1 7-11 7-4 6-6h2l-4 12h3v-6h2l1 5 8-1 4-1 3-3h3v-2l4-1 5 1 6-3 12-2z" fill="#498E6D"/>
<path transform="translate(1e3 179)" d="m0 0 1 3h2l3 6 9 10v2h2l5 7h-3l3 10 3 3v8l-7-2-11-6h-7l-1 2-4-5v-10l3-21z" fill="#105246"/>
<path transform="translate(1447,862)" d="m0 0h6l11 8 17 13 11 7 1 2h-20l-13-3-12-6-8-8-1-5 6-7z" fill="#02362D"/>
<path transform="translate(794,402)" d="m0 0h2l-1 6-7 9-6 12-7 8 1 9 5 11v3l-6-2-9-7-4-4-5-3v-2l-9-3 4-4 16-10 10-9 3-4 6-2 1-4z" fill="#FEFEFD"/>
<path transform="translate(947,311)" d="m0 0 5 1-3 11-7 14-12 13-9 6-1-3-4-2-1-10 4-1 8-17 5-4z" fill="#72B282"/>
<path transform="translate(1027,1424)" d="m0 0h5l4 8-1 2v3l-8 2 2 6 2 2h-28l-59-2-3-1v-2l5-1 30-1 11-1v-2l4 1v1l6 1 3-1v-2l3-1 5 1 9 1 3-1-3-2 2-5z" fill="#064339"/>
<path transform="translate(625,863)" d="m0 0h7l6 4 1 5-4 6-8 7-13 6-5 1h-20l4-4 10-8 11-9z" fill="#02362D"/>
<path transform="translate(616,661)" d="m0 0 8 8 4 8 3 3 3 7 8 16 5 12 3 10 2 11-1 4-4-2-4-13v10l-2 6v28h-1l-5-45-2-16-5-19-11-24z" fill="#073330"/>
<path transform="translate(1076,233)" d="m0 0h1l-1 7-5 9-5 8-10 9-9 7h-2l-2 4h-4l-1-1-2-10-4-4v-2h3l1-5 6 2 10-9 4-3 7-3 5-3 6-4z" fill="#FEFEFD"/>
<path transform="translate(693,758)" d="m0 0 2 2 5 12 4 18 1 7v35h-2l-1 3-5-3-1-2-6-3 2-1 1-26z" fill="#03382F"/>
<path transform="translate(1227,1042)" d="m0 0h6l9 6 14 11 6 7v6l-5 4-7-1-11-8-13-11-4-5 1-6z" fill="#72B182"/>
<path transform="translate(848,1042)" d="m0 0 7 1 4 4 1 4-8 8-10 8-9 7-2 1h-8l-5-4 2-6 4-5 11-9 11-8z" fill="#73B282"/>
<path transform="translate(1521,746)" d="m0 0 4 1-9 8-8 6-17 12-6 5-5 3h-2v2l-14 9-3 3-6 4h-3v2l-10 5h-3l-1 3h-2v2h-2v2l-7 4-5 4-9 5-10 6 2-4h2v-2h2l2-4 6-3 4 1v-2l7-5 1-4h2l3-9 5-2 1 1 9-2 3-5 10-7 5-4 2-1h8l1-4h2v-2l7-3 5-6 4-1v-2l5-2 1-2h3v-2h2l1-2 5-3h2v-2z" fill="#02372E"/>
<path transform="translate(717,851)" d="m0 0 5 2 4 3 5-1h3l11 7 9 7 9 6 1 5-4 6-5-1-19-12-8-6-9-5v-2l-4-1-2-1v-2h-2l1-4z" fill="#03352C"/>
<path transform="translate(1366,848)" d="m0 0 2 1v1l2 1-2 3v3l-10 7-22 15-11 6-2 2h-3l-4-7v-4l16-11 12-8 6 1 10-5 4-4z" fill="#04362E"/>
<path transform="translate(495,696)" d="m0 0 4 1 8 4 8-1 8 5v2h-2l4 8 5 6v2l4 2 3 4 10 6 3 4 6 7 2 4-5-2-4-3v-2l-4-2-11-6v-2l-4-2-11-9-4-2v-2l-4-2-13-10v-2l-4-2-4-5z" fill="#02352D"/>
<path transform="translate(1332,602)" d="m0 0 9 2 6 7v10l-3 7-9 2-8-1-5-3-3-5v-8l5-9z" fill="#FEFEFB"/>
<path transform="translate(1313,720)" d="m0 0h10l5 3 4 7v8l-3 5-8 5h-7l-6-4v-2h-2l-2-5 1-9 6-7z" fill="#083C31"/>
<path transform="translate(1136,441)" d="m0 0h1l2 18v71l-1 21-2 4h-2v2l-7 1-6-4-2-8v-14l4 3 11-3v-2h2v-26l-1-5 1-2z" fill="#1D5B49"/>
<path transform="translate(756,720)" d="m0 0h9l3 1v2l4 2 3 8-1 6-4 5-6 4h-6l-8-5-3-6 1-9 6-7z" fill="#04362D"/>
<path transform="translate(1232,282)" d="m0 0h16l-1 4-10 10-9 6-9 1-14-2-1-4-5 1 5-5 15-8z" fill="#73B282"/>
<path transform="translate(744,451)" d="m0 0 4 1 3 5 8 7 7 8-1 5-7-3-7-6h-5l-7 8-11 9-5 4-3 1h-8l-1-5h2l1-3 10-6 6-5 9-7 3-1 1-7z" fill="#FEFEFD"/>
<path transform="translate(530,1220)" d="m0 0h69l20 3 16 5 2 2-12-1v-2l-3-1h-7l-8 2-5-1-1 2-3 1-2 1-6-2-16-1 4-1-1-2-43-1-16-1-30-1-1 2v-3z" fill="#34755B"/>
<path transform="translate(1132,250)" d="m0 0 17 4 4 3-10-1 1 3-1 3 4 1-3 2 1 6 6-1 2 1 3-3 2 4 1 3 4 1v8l6 1v1l-16-1-10-4-5-4-5-7-2-7v-12z" fill="#73B282"/>
<path transform="translate(1349,1351)" d="m0 0 2 3-1 5 3-1 1 7-2-1-69-1 2-9 2-2v3l61-1z" fill="#08463C"/>
<path transform="translate(724,1352)" d="m0 0 1 3 62-1 2-1 2 10h-70z" fill="#145344"/>
<path transform="translate(1442,1220)" d="m0 0h112l21 3 15 4 2 2h-9l-4-2h-17l-4 1h-4l3 5-9-3-4-1-17-1v-1l8-1 3-2-74-1-24-1-1 3v-4z" fill="#0F5043"/>
<path transform="translate(1479,856)" d="m0 0 13 2 15 3 12 2 27 9 10 2 1 2h-14l-11-1-11-2-19-3-25-7-5-1v-1l6-1z" fill="#063330"/>
<path transform="translate(742,641)" d="m0 0 5 1 6 5 3 5v7l-5 8-5 3h-7l-4-2-4-6-1-7 4-6 4-5z" fill="#FCFDEC"/>
<path transform="translate(1373,308)" d="m0 0 4 2 8-1 3 5 2 9 3 9 4 10-1 6-3 2h-5l-4-6v-2h-2l-6-16-3-11-1-1v-5z" fill="#FEFEFC"/>
<path transform="translate(1338,336)" d="m0 0 5 1 7 8 11 12 1 4-3 1-6-1 2 4v3h2l2 8-6 1-4-4-3-2-2-4-4-2-2-7z" fill="#125447"/>
<path transform="translate(712,803)" d="m0 0 1 2h2l1 7h2l2 7h4l-1 5v19l5 3v5l-1-2-5-1-17-11-1-5 3-9h2l1-16z" fill="#59A076"/>
<path transform="translate(714,513)" d="m0 0 8 1 16 8 12 14v5h-20l-9-2-2-2h2l1-6v-11l-2-4-6-1z" fill="#226A54"/>
<path transform="translate(1514,779)" d="m0 0h10l4 4 15 4 3 2v3l-7-1-1 2 11 1v1h-21l-15-2-10-2-12-1v-3l10-3 10-4z" fill="#052D2C"/>
<path transform="translate(1353,519)" d="m0 0 5 1 2 4-1 6h3l1 2h3l-1 4-11 5-5 1h-17l-2-2v-4l5-3 5-6 9-7z" fill="#2A7159"/>
<path transform="translate(1575,735)" d="m0 0h37v2l-16 6-14 4h-23l-3-2-5-1 1-4 16-4z" fill="#06332F"/>
<path transform="translate(469,735)" d="m0 0h33l27 5v3l-15 4h-17l-10-2-10-3-10-4-1-2z" fill="#063E34"/>
<path transform="translate(732 1e3)" d="m0 0h2l-2 5-3 3h-2l-2 4-19 19h-2l-1 4-6 4 4 1v2l-18 7-26 6-14 2h-15l4-2 20-4 15-4 9-3h2v-2l16-9 6-1 1-3 6-3 9-8 4-5 1-2 4-2 6-7z" fill="#14463C"/>
<path transform="translate(704,505)" d="m0 0h3l1 3 2 1v2l4 2v2l6 1 3 4v11l-2 7 9 2 20 1v1l-14 1-14-2-12-6-6-9-2-8v-8z" fill="#408267"/>
<path transform="translate(996,215)" d="m0 0h3l7 9 22 22 3 2v2h-4l1 9-5-1-9-7-9-13-6-9-4-8v-5z" fill="#FEFEFC"/>
<path transform="translate(1514,828)" d="m0 0h7l4 1v2l4 2 5 6 13 10 14 9 14 7v1h-6l-5-1h-5v3l-3 1-4-1v-2l-6-1v-3l2-1h1l-1-3-5-1-2-5-4-2-10-9-1-2-4-1v-2l-6-2-2-2z" fill="#3E8066"/>
<path transform="translate(1039,1074)" d="m0 0 4 1 7 8 4 4-1 4-8 8-4 5-5-2-6-7v-2h-2l-3-5 5-5z" fill="#0F4B3E"/>
<path transform="translate(1330,438)" d="m0 0h8l1 2-2 4-3 1-4 6-13 13-12 16-9 13-4 1-1-5 7-12 9-12 8-10 7-7 8-6z" fill="#33795E"/>
<path transform="translate(852,316)" d="m0 0 16 2 9 2 6 5 10 3 4 1-1-3v-5-3l8 11 7 14 3 8v4l-4-2-13-13-14-10-16-8-15-5z" fill="#FCFDEC"/>
<path transform="translate(692,940)" d="m0 0h15l21 7 15 7v3l-10 4-7-1-10-5-8-5-15-8z" fill="#498E6D"/>
<path transform="translate(1365,360)" d="m0 0 5 1 11 7 1 1v18l-1 1-2 10h-8l-5-2-2-5v-3l3-1v-2l4-2 1-4-2-9-2-1v-2h-2l-2-4z" fill="#125547"/>
<path transform="translate(1373,967)" d="m0 0 8 1 4 2-3 1 4 4 7 1h9l5 5 4 3 5 1 2 3 6 2v2l9 2 1 3-9-2-8-2v-2l-9-2-2-1-1 2-3-2-1 2-1-2-2 3-1-1v-6h-3v-2l-8 1-7-3v-2l-8-3-2-5z" fill="#02362D"/>
<path transform="translate(1361,644)" d="m0 0 11 1 3 6 1 7-6 18-2 7h-3l-2-6-4 3h-4l-1-3 1-2h2v-3h2l1-5 2-3v-10h3l-1-5-4-1z" fill="#3F8166"/>
<path transform="translate(744,358)" d="m0 0 3 1 3 4-1 5-5 12-4 17-3 3-1 6h-3l-4-8-3-3 2-9 7-8 5-11 2-8z" fill="#FEFEFB"/>
<path transform="translate(1335,638)" d="m0 0h9l5 4 1 2v10l-4 6-3 2h-6l-7-5-2-3v-9l3-5z" fill="#FEFEFC"/>
<path transform="translate(1533,634)" d="m0 0 1 3-7 20-7 25-6 21-4 10h-2v-8l2-9h-2v-8l3-6 2-8 4-6 3-7 4-10 4-8 3-7z" fill="#073431"/>
<path transform="translate(1117,1268)" d="m0 0 3 4 1 3 1 4-7 19-11 28h-1v-7l1-2-5 3-1 7-3 3-1-3 19-49z" fill="#185646"/>
<path transform="translate(713,751)" d="m0 0h2l5 13v4h-5v8l2 1v2h-3l-1 3h-2l4 8-1 3v8h-3l-2-6v-10l-4-5-6-8-3-9 3 1 11-3 1-4-1-4z" fill="#5AA176"/>
<path transform="translate(740,436)" d="m0 0 3 3v4l3 1h-2l-2 9-3 7-2-2-3-4-16 4-8 3-8 1 3-2 8-2v-4h4l2-4 5-5 1-4-6-2 2-2 19 2z" fill="#246B55"/>
<path transform="translate(747,438)" d="m0 0 5 3 21 21 9 12 9 14 1 6-5-1-20-26-15-16-3-5v-6h-2z" fill="#2A6C56"/>
<path transform="translate(1389,938)" d="m0 0h3l-1 3-10 4-12 7-10 7-3 1h-9l-7-3-1-3 11-5 18-7z" fill="#488D6C"/>
<path transform="translate(884,1220)" d="m0 0h160l3 1-1 6h-1v-5l-63 1h-46l-53-1 1 11v23h-1l-2-35z" fill="#599B75"/>
<path transform="translate(1167,1440)" d="m0 0h5l-3 1v3h6l11-4h8l2 2 35 4 62 1v1h-133l-1-5 2-2z" fill="#327259"/>
<path transform="translate(587,651)" d="m0 0 7 1 5 4 2 7-4 8-5 4-8-1-5-4-2-4 1-5 4-7z" fill="#FCFDEC"/>
<path transform="translate(1303,954)" d="m0 0 5 5 6 12 1 6 3 6v2l3 1v2h2l4 6 4 9 7 6 3 5v2l4 2v2l5 2 9 7-1 2-5-2-11-9v-2l-4-2-5-5v-2l-3-1-10-14-1-3h-2v-3h-2l-6-12-6-9-4-8v-2h2v-2z" fill="#0B3633"/>
<path transform="translate(1488,653)" d="m0 0h9l6 4 2 3v7l-4 6-5 2-9-2-5-5-1-7 5-7z" fill="#FCFDEC"/>
<path transform="translate(1366,1021)" d="m0 0 5 2 10 8 14 8 11 5 15 5 16 4 1 2h-9l-15-3-7-2-12-2-19-7 4-2-5-4-3-5-5-5z" fill="#0C3934"/>
<path transform="translate(1392,988)" d="m0 0 2 4 4 10 4 1 3 4 1 6 5 5 2 4v2l3 1v2h2l1-7-2-3 2-2 4 6 8 7 3 3 6 4 23 6 1 2h-11l-1-1-15-3-15-5-8-5-11-14-5-9v-2h-2l-4-11z" fill="#073430"/>
<path transform="translate(797,1025)" d="m0 0h7l5 3-1 7-10 9-7 5-6-1-3-3 1-6 6-8z" fill="#5BA277"/>
<path transform="translate(653,933)" d="m0 0 4 1-5 1v2l9 2-1 2 7 10v2l-5 1h-3l-5 2-10-2-7-1v-2h2v-3l7-3 5-2 2-2h-7l-2 2-8 1-3-2 3-3z" fill="#4B906E"/>
<path transform="translate(749,1268)" d="m0 0 3 4-1 3 3 1-2 9-14 36-2-3 2-4 1-3h-2l-2 4-4 5-2 4-1-2 15-39z" fill="#1A5948"/>
<path transform="translate(573,859)" d="m0 0 3 1-2 4 1 2 12-2 3 3-21 5-27 4-16 1-2-2 21-6 15-6z" fill="#073732"/>
<path transform="translate(1161,189)" d="m0 0 7 4 9 9 7 12 3 12-2 11-2 2-4-9-1-5h-2l-3-10-8-16h2l-4-6z" fill="#3D7F65"/>
<path transform="translate(1199,257)" d="m0 0 6 1 5 5 2 6-1 5-7 6h-6l-7-6-1-2v-6l4-6z" fill="#509470"/>
<path transform="translate(536,500)" d="m0 0 2 3 1 6 4 2 4 12 3 14 4 9 6 9 4 7 5 6v2l5 2 7 6v2l6 2 5 3 1 3-9-3-11-8-5-4-7-8-10-15-6-12-8-27z" fill="#14433B"/>
<path transform="translate(1278,1024)" d="m0 0 5 1 9 6 5 5 2 3v5l-5 4-9-3-9-7-3-3 1-7z" fill="#71B181"/>
<path transform="translate(880,257)" d="m0 0 7 1 5 6 1 2v6l-4 5-7 3-6-2-4-5v-8l3-6z" fill="#4E926F"/>
<path transform="translate(545,635)" d="m0 0 3 3v3h2l4 10 8 16 3 5 5 13 4 8 3 9-1 4-5-9-6-8h-3l-5-16-6-17-2-3v-7h-2l-2-5z" fill="#063230"/>
<path transform="translate(889,409)" d="m0 0h4l8 11 2 3-1 4-6 3-3 5-5-1v-2l-4-2-5-4 2-5 7-10z" fill="#083B32"/>
<path transform="translate(1188,409)" d="m0 0h3l8 12 1 1v5l-6 3-3 5h-5l-6-7-3-2 1-4z" fill="#083C32"/>
<path transform="translate(1072,1389)" d="m0 0h3l1 13-3 15-1 11-7-7h-2v2l-4 2-1-7 8-19 3-1 2-7z" fill="#0B4035"/>
<path transform="translate(963,489)" d="m0 0h1v53l-1 10-4 5-5 1-4-2h8v-5h-5l-2-4 2-7 2-4 1-5 3-1 1-14v-8l1-1v-7-3z" fill="#0A493D"/>
<path transform="translate(1080,394)" d="m0 0 9 6 8 6 7 8 8 13 4 7 2 7v9l5 2v3h-2v11l-1 3-1 33-2 4-1-58-4-12-9-17-11-13-14-10z" fill="#14423A"/>
<path transform="translate(1026,777)" d="m0 0 1 2-7 6-2 3h-2v2h-2l-2 4-8 7-3 4h-3l-2 4-6 4-8 8-6 7-5 3-7 3-5 4-4-1 5-5 13-11 11-9 13-11 10-8h2l1-3 10-8 4-4z" fill="#05312F"/>
<path transform="translate(1421,993)" d="m0 0 11 3 21 6v2l9 2-3 1v2h2v3l4-1 1 2-5 1v4l4 1 1 4-5-2-7-3-11-9-5-5-10-5-5-3-2-1z" fill="#3A7D63"/>
<path transform="translate(575,994)" d="m0 0 2 4-2 5h-2l-3 10 4 1v2l2 1-1 2 3 1-9 2-4 2v3h-3l-1 2-7-1 1-6 4-10 3-5 8-7 1-2h3z" fill="#3D7F65"/>
<path transform="translate(897,1222)" d="m0 0h148v8l-3-6h-55l-34 1-4 2 36 1v1l-46 1 1-2-3-1h-8l-4 1h-2-2v-2l-9-2-15-1z" fill="#175C4B"/>
<path transform="translate(1027,1032)" d="m0 0h23l16 4-1 4h-7l-5-1-4 2h-4v2h-2l-1 3-6-1v-2l2-1-7-2-8-1-1-1v-5z" fill="#509470"/>
<path transform="translate(1143,255)" d="m0 0 12 2 7 7 5 9 3 10 1 3-8-2-1-8-3-1-3-3-1-3-3 3-5-1h-2l-2-6 2-2h-3l2-6-2-1z" fill="#5BA277"/>
<path transform="translate(599,960)" d="m0 0 8 1 2 3-22 18-11 10-4 3h-2l1-4 6-9 12-13z" fill="#74B383"/>
<path transform="translate(781,966)" d="m0 0h4l-1 7-8 17-8 10-5 5h-2l-2 5-6 5 1-6 4-2v-2l4-4 1-6 2-6 8-13 5-5z" fill="#FEFEFD"/>
<path transform="translate(1092,1352)" d="m0 0 1 3 62-1 2-1-1 3-44 1-10 1-2 1h19l39 1 1 3h-70l1-2h4v-4l-2-1z" fill="#3B7D62"/>
<path transform="translate(749,965)" d="m0 0 3 1-4 9-5 10-2 6-4 4-2 5h-3l-2 5-4 2-2 4h-3l2-4 8-14 6-15 3-6-4-2 10-2z" fill="#4D916E"/>
<path transform="translate(751,230)" d="m0 0 6 1-1 5h-2v2l7-2 1-4h9l4 5 1 9-4 3-7-1-5-1v-2l-9-4-1-10z" fill="#054238"/>
<path transform="translate(650,1307)" d="m0 0h3l1 4-8 8-5 9-5 3h-5l-9-7 1-2 10-4 3-3 7-2v-2l5-2z" fill="#FCFDFB"/>
<path transform="translate(880,448)" d="m0 0h3l9 11 1 4-6 4h-2l-2 5h-4v-3l-4-2-4-5 3-6z" fill="#0F3C36"/>
<path transform="translate(1192,448)" d="m0 0 4 2 9 11v3l-6 3h-2l-2 7-4-1-6-9-1-5z" fill="#124139"/>
<path transform="translate(1312,1266)" d="m0 0h1l1 7 1-4h4l1 4-3-1-2 10-7 18h-1v-9l-4 10-3 1-1 4 2 1h-2l-1 5-2 1-3 6-1-2 12-31z" fill="#1B5645"/>
<path transform="translate(1349,410)" d="m0 0 3 1 1 14 9 4 2 2-2 3-12 3v2l-10 2 2-10 1-4h2l1-6 2-2z" fill="#FEFEFC"/>
<path transform="translate(1343,231)" d="m0 0h5l4 5 1 3v7l-5 4-1-2-9-1-1-2-6-3v-6l1-2 9 2z" fill="#074439"/>
<path transform="translate(1132,250)" d="m0 0 17 4 4 3-10-1 1 3-1 3 4 1-3 2-1 5h-2l1 6-1 2-7-6-3-9v-12z" fill="#72B282"/>
<path transform="translate(744,990)" d="m0 0 2 2-3 7-2 5-6 10-4 4v2l-3 1-2 2h-8l1-4 3-6 9-8 3-5 4-3 1-3h2l1-3z" fill="#042E2D"/>
<path transform="translate(816,1439)" d="m0 0h9l9 3 33 2 3 2h-48l-31 1 1-5 1-1h11l-3 3h6l7-3h2z" fill="#054238"/>
<path transform="translate(877,296)" d="m0 0 5 2 5 4 5 3 7 10 7 6 6 15 3 3 1 7-2 5-2-2-6-15-7-11-11-14-11-12z" fill="#5FA579"/>
<path transform="translate(608,517)" d="m0 0 9 1 9 7v2l4 2 8 9 7 13v5l-2 1-4-3-2-8h-2l-3-6-5-4-6-7-6-5-5-5z" fill="#0D4136"/>
<path transform="translate(995,376)" d="m0 0h2l-1 4-7 5-3 3h-2l-1 4-7 6-7 8-2 3h-2l-3 8h-2l-2 4-4 1-1 4-1-2 6-12 12-16 12-11z" fill="#15433B"/>
<path transform="translate(1293,657)" d="m0 0h2l2 3v3h3v2l3 1v2h4v2h2l3 5 4 3-1 7-5 1-8-6-6-8-2-4z" fill="#3E8166"/>
<path transform="translate(1012,404)" d="m0 0 2 1-6 5-6 7-5 5-4 7-6 8-4 14-3 24h-1v-23l2-14 7-12 7-9 5-4h2l1-3z" fill="#FFFFFE"/>
<path transform="translate(1262,404)" d="m0 0 2 4-1 2 2 2-7 2v3h-2v2l-4 4-6-1-4-5 1-9 4-2h12z" fill="#1B5D4C"/>
<path transform="translate(1464,956)" d="m0 0 8 1-1 3 3-1 3 1v2l6 2 22 22v2h-6l-9-9-8-6-11-9-1-4h-5z" fill="#73B282"/>
<path transform="translate(1442,1220)" d="m0 0h112l21 3v1l-14-1h-97l-24-1-1 3v-4z" fill="#599B75"/>
<path transform="translate(1452,887)" d="m0 0h6l9 3 8 2 15 1-3 3-6 1-1 2-8 1-1-1-4 4-10-1 3-3 2-1-2-2 1-2-5-2-4-3z" fill="#579E75"/>
<path transform="translate(631,698)" d="m0 0 2 1 2 7 3 2 2 6 2 5 1 8v8l-2 6v28h-1l-5-45-2-16z" fill="#0A493D"/>
<path transform="translate(488,1222)" d="m0 0h30l3 1 12 1-1 2-16 2-6 1-1 6-8-5-12-3z" fill="#0B3833"/>
<path transform="translate(1402,1049)" d="m0 0 11 1 6 2 10 2h8l2-1 17 1 20 3 16 2-3 3-29-2-26-3-25-5-7-2z" fill="#37795F"/>
<path transform="translate(607,957)" d="m0 0 3 1 15 2v1l-16-1 2 3 7 2 7 3 3 1v2l7 2 2 1-1 4-13-4-3-2h-5l-4 3-7 5-4 1 1-5 4-1 2-6 1-1-2-2 2-3v-4l-2-1z" fill="#468B6B"/>
<path transform="translate(1355,1441)" d="m0 0h5l-5 4 3 1h49l130 1v1h-182l-2-1v-5z" fill="#63A379"/>
<path transform="translate(683,1417)" d="m0 0h1l2 6-1 6-6 7-4 1h-5l-1 1h-5l-3-4 1-3 9-4 7-6 3-3z" fill="#FEFEFD"/>
<path transform="translate(728,518)" d="m0 0 9 3 7 8 6 7v5h-20l-3-2h2v-2l9-2-4-9-6-3-2-4z" fill="#125547"/>
<path transform="translate(1106,545)" d="m0 0h1l2 12 1 4h2l4 4 6 3h12l8-4 4-3-2 4-5 6v2l-9 4h-5l-5-4-7-3-4-5-3-5-2-6z" fill="#14423A"/>
<path transform="translate(711,854)" d="m0 0 6 2 5 4 11 6v2l4 1 5 3 3 2v2l6 2v2l8 2-2-7-2-2-5-1-3-3 1-3 4 1 9 7 3 3-1 5-3 4-5-1-19-12-8-6-9-5v-2l-4-1-2-1v-2h-2z" fill="#14433B"/>
<path transform="translate(737,1311)" d="m0 0h2l-1 4-1 3v6l-9 23h-1l-1-5-2 3-3 1-2 4-1-2 9-24 2-1 3-5z" fill="#144D3E"/>
<path transform="translate(1395,359)" d="m0 0 9 3 8 7 1 3v8l-1 3-6 1-3-3 4-4-1-6-1-3-4-2-5-1v12l3 5-3 3-3-5-1-6v-12z" fill="#FEFEFD"/>
<path transform="translate(908,209)" d="m0 0 2 1v10l-1 5h-2l-3 9-1 6 4 2h-5l-3-4-2-8 1-13 3-4v2h3v-2l3-2z" fill="#4C916E"/>
<path transform="translate(735,231)" d="m0 0h7l2 5v8l-5 1-3 10-1 3-5-1 1-5 1-3-2-4v-7l4-6z" fill="#0C493C"/>
<path transform="translate(566,501)" d="m0 0 16 2 14 5 8 4v2l3 2h-12l-7-4-9-1-7-3-6-5z" fill="#093D33"/>
<path transform="translate(470,736)" d="m0 0h30l9 2-3 3-6 1v2l4 1-6 1-9-2-12-2-6-3z" fill="#042C2C"/>
<path transform="translate(777,621)" d="m0 0 5 2 1 2 2 15-4 4-10-2-2-3 5-5-1-5-3-1 2-4z" fill="#FFFFFE"/>
<path transform="translate(1383,1439)" d="m0 0 13 4 7 1 23 1 10 1v1h-80l-2-2 3-3h3v-2l7 1-2 3 7-1 4-2 4-1z" fill="#09473C"/>
<path transform="translate(1356,404)" d="m0 0 6 1 7 7 2 5v5l-4 3h-9l-2-2 1-10z" fill="#FFFFFE"/>
<path transform="translate(997,402)" d="m0 0h5l-1 5-8 8-12 16-1 2-2-1 1-6-1-4 8-11 8-7z" fill="#FEFEFC"/>
<path transform="translate(852,1051)" d="m0 0 5 1-2 4-14 12-8 6-7 1v-4l4-4h2v-2l4-1v-2h2l2-4z" fill="#5CA378"/>
<path transform="translate(1464,653)" d="m0 0 2 1-9 20-6 18-5 5-4 5h-2l-1 2 1-7 9-17 2-5h2l1-6 1-2h2l1-5z" fill="#073330"/>
<path transform="translate(698,926)" d="m0 0h21l16 2v1l-12 1-6 2-13 2v-2h-12l-14-3v-1z" fill="#15433B"/>
<path transform="translate(1014,264)" d="m0 0 4 1 5 6 2 2 3 2 3 3v5l-5 3-8-4v-3h-2v-2h-2l-3-7 1-5z" fill="#105246"/>
<path transform="translate(1525,1439)" d="m0 0 13 2 2 2v4h-92l4-2 4-4 9 1 2 1v2h39l29 1-1-3-9-3z" fill="#105043"/>
<path transform="translate(1308,464)" d="m0 0h6l-1 6-8 10-9 13-4 1-1-5 7-12 9-12z" fill="#286A55"/>
<path transform="translate(1207,328)" d="m0 0 6 1-1 4-1 3-9 5h-2l-1 3-8 1-7 2 2-4 8-9 4-3z" fill="#4E936F"/>
<path transform="translate(1501,725)" d="m0 0 2 3-2 3 2 1 1-2-2 10-3 6 1 2h-2v2l-5 3-6 7-2-1 4-4 2-19 2-3h3l3-7z" fill="#07453B"/>
<path transform="translate(1204,296)" d="m0 0 2 4-10 10-8 10-8 12-4 2-2 3 1-5 2-8 3-3h2l3-5 3-1 1-6 1-2h2v-2h2l2-4 5-4z" fill="#5FA579"/>
<path transform="translate(1515,1241)" d="m0 0h1v91h28v1l-6 1h-23l-1-1v-87z" fill="#569772"/>
<path transform="translate(1374,829)" d="m0 0h2v7l-10 7-13 9-2-3v-7l4 1 1-3 1-4 4-1 6-2 2 1 1-2h4z" fill="#6FAF80"/>
<path transform="translate(743,646)" d="m0 0 6 1 1 7-1 4-6 4h-9l-2-1-1-5 5-5 5-4z" fill="#FFFFFE"/>
<path transform="translate(740,1359)" d="m0 0 50 1 1 3h-70l1-2z" fill="#3F8064"/>
<path transform="translate(1601,1324)" d="m0 0h6l-2 5-11 11-5 3-4-1-5-5v-3l16-6z" fill="#FCFDFA"/>
<path transform="translate(1156,1355)" d="m0 0h2v5h-58l-1-2 13-2z" fill="#07453A"/>
<path transform="translate(1351,644)" d="m0 0 5 5 3 4v6l-5 3-5 4h-4v2l-3 1h-7l-4-5v-2l6-1 2 1h6l4-4 2-3z" fill="#3B7D64"/>
<path transform="translate(1315,230)" d="m0 0 4 1 1 2 3 1-1 4 4 5-1 5-3-1-2-2-3 1-1 3-6-3-1-1v-8l4-6z" fill="#0A473B"/>
<path transform="translate(936,1438)" d="m0 0 1 2 38-1 12-1-3 2-8 1-35 1v2l62 2v1h-92v-1h26z" fill="#32755D"/>
<path transform="translate(848,1042)" d="m0 0 7 1 1 4-5 1-3-1-6 7h-2v2l-8 4-9 7-1 2h-3l1-4 4-5 11-9 11-8z" fill="#5CA378"/>
<path transform="translate(847,330)" d="m0 0h10l11 3 11 6 3 4-5 1-25-8-5-4z" fill="#FCFDEC"/>
<path transform="translate(829,1030)" d="m0 0 6 1-1 4-6 3-9 10-7 2v2l-3 1v-4l1-5v-3l6-5 4 1 7-4z" fill="#73B282"/>
<path transform="translate(756,720)" d="m0 0h9l3 2h-13l3 2-5 6v7l1 5 2 1h6l7-3 5-3-2 5-8 6h-6l-8-5-3-6 1-9 6-7z" fill="#19493E"/>
<path transform="translate(1168,505)" d="m0 0h57l15 1-1 2-96-1 1 23 2 3-1 4-4-6 1-25z" fill="#589974"/>
<path transform="translate(756,1271)" d="m0 0 3 2 7 21 1 7-4-2-8-6-2-4 1-13z" fill="#FEFEFA"/>
<path transform="translate(1198,318)" d="m0 0h9l-2 5-6 7-10 7-4-1 1-6 7-9z" fill="#FFFFFE"/>
<path transform="translate(821,419)" d="m0 0 8 1 2 3v7l-3 3-6 1-7-3-1-5 3-6z" fill="#064238"/>
<path transform="translate(693,758)" d="m0 0 2 2 5 12 1 4v20l-3 3-1-2-2 1-1-27-1-5z" fill="#052F2E"/>
<path transform="translate(985,402)" d="m0 0 1 2 3 1-1 5-7 9-3 3h-4v2l-2 2-1 2-3-1v-3h2l1-7 1-2h2l2-4 2-3h2v-2h2v-2z" fill="#09463A"/>
<path transform="translate(1225,331)" d="m0 0h11l-2 4-15 5-14 4h-4l1-4 14-7z" fill="#FCFDEC"/>
<path transform="translate(669,929)" d="m0 0h9v1l-5 1 2 4-2 1 1 5-5 2-11-4-6-2v-2l5-1v-2z" fill="#103F38"/>
<path transform="translate(703,506)" d="m0 0 2 3 2 5h4v2l2 1v6l3 3-1 6h-4v-2h-4l-3-4-2-8v-8z" fill="#509470"/>
<path transform="translate(1317,1272)" d="m0 0 3 1 8 20 2 6-1 4-7-9-5-5-3-4 2-10z" fill="#FEFEFB"/>
<path transform="translate(1132 1e3)" d="m0 0h6l-2 4-12 6-8-2-17 1-5-3-5-2v-1l8 1 13 1 15-3z" fill="#509470"/>
<path transform="translate(1036,364)" d="m0 0h13l17 3 4 2h-2v2l-11-1-8-1h-13l-5 1-12-2 4-2z" fill="#19483E"/>
<path transform="translate(1556,780)" d="m0 0h12l7 1v2l7 1-1 4-17 2h-5v-6h-2z" fill="#073330"/>
<path transform="translate(1086,239)" d="m0 0h2l-1 18-2 11-4 1v-3l-2-1v-4-5l-3-2 3-1v-2l3-3 1-3-4 3-2-1z" fill="#206350"/>
<path transform="translate(604,1323)" d="m0 0 12 1-4 2h-2v2l6 1 15 3v1l-10 1-2 2-5-1h-6l-8-4 1-5z" fill="#0D4C3F"/>
<path transform="translate(1227,1042)" d="m0 0h6l9 6 14 11 2 4-4-2-3 1v-2l-5-2-6-3-4-4v-2l-12-3 1-3z" fill="#5FA579"/>
<path transform="translate(853,317)" d="m0 0 11 3 16 7 10 7 1 2-4-1-12-7-7-2-10-3-7-1-1 2-3 2-3-2-1-4z" fill="#74B383"/>
<path transform="translate(916,219)" d="m0 0 1 4v11h2l-1 3-9 4h-6v-3h2l1-6 6-8z" fill="#256C56"/>
<path transform="translate(912,1223)" d="m0 0h21l20 1-4 3 36 1v1l-46 1 1-2-3-1h-8l-4 1h-2-2v-2l-9-2z" fill="#205E4B"/>
<path transform="translate(1479,856)" d="m0 0 13 2 9 2v2h2v2l-4 1h-4v2l-11-2-12-3v-1l6-1z" fill="#02352D"/>
<path transform="translate(1261,419)" d="m0 0 5 1-1 3-5 3 3 2v-2h2v-2h5v6l-3 3-7 1-6-3-2-5 5-6z" fill="#195747"/>
<path transform="translate(1206,280)" d="m0 0 5 1-3 6-17 8-3 2-1-7h4l3-7 5-2z" fill="#FFFFFE"/>
<path transform="translate(953,1224)" d="m0 0h38v2l-4 1 2 2-46-1 4-2 4-1z" fill="#063E35"/>
<path transform="translate(1336,250)" d="m0 0 10 1 1 4h-3v5h5l1 5-6 4-5-1-2-1 2-4 2-1-3-5-5-1 1-5z" fill="#0C4A3D"/>
<path transform="translate(732 1e3)" d="m0 0h2l-2 5-3 3h-2l-2 4-19 19h-2l-1 4-8 4-3-1-8 2v2l-6 1 5-4 11-6 6-1 1-3 6-3 9-8 4-5 1-2 4-2 6-7z" fill="#125345"/>
<path transform="translate(1333,864)" d="m0 0 2 1-4 7-6 4v3l3 1 4-2v3l-9 6h-3l-4-7v-4l16-11z" fill="#13413A"/>
<path transform="translate(1331,247)" d="m0 0 16 1 5 5 1 2v6l-3 3v-2l-7-2 1-5h3l-1-3-10-1-5 1v6l-4-2 1-4h2z" fill="#226552"/>
<path transform="translate(995,247)" d="m0 0h1l3 22 5 11 1 5-3-1v-2h-2l-1-6-3-1-3-6-2-13 2-7z" fill="#FEFEFA"/>
<path transform="translate(1511,999)" d="m0 0 6 2 6 12 3 9v3h-2l-1 3v-3l-4-2-2-9-2-1-3-7z" fill="#418367"/>
<path transform="translate(1302,618)" d="m0 0 4 2 3 1 5 11v7l-6 5-3-1 1-6v-8l-5-6z" fill="#FEFEFD"/>
<path transform="translate(508,1434)" d="m0 0 1 3 2 1-1 4-2 3h27v1h-46l1-4 14-4z" fill="#0B3A34"/>
<path transform="translate(694,422)" d="m0 0 4 1 4 4v2l-8 4-10 1-4-2 3-5 8-4z" fill="#FFFFFE"/>
<path transform="translate(1347,641)" d="m0 0 3 3v10l-4 6-3 2h-6l-7-5-2-3v-9l2 4 3 3 6 3 4-1 5-5z" fill="#FCFDEC"/>
<path transform="translate(808,1033)" d="m0 0 4 2-1 4-3 5-8 7-7 2-2-2v-3l10-8 6-5z" fill="#FEFEF9"/>
<path transform="translate(1101,1317)" d="m0 0h3l-1 12-3 6-3 1-1 5-3 2-2 3-1-3 2-11 3-3h2l1-9z" fill="#0A4034"/>
<path transform="translate(746,600)" d="m0 0 8 3 1 4-2 2-9 3-5 2-1-1v-9l3-3z" fill="#FFFFFE"/>
<path transform="translate(563,763)" d="m0 0 5 2v2l10 4 3 6 3 3v2l4 2 10 4 4 1 2 4-6-1-4-1h-7l-5 2 2-3h2v-2l-4-2h4l-15-15-8-7z" fill="#579F75"/>
<path transform="translate(743,633)" d="m0 0 4 1 2 1 4 7 2 4h-4l-6-4-4 1-5 5-4 5h-2l-1-3 3-2 3-6z" fill="#519571"/>
<path transform="translate(1109,538)" d="m0 0 1 4 1 2 2 12 6 8 7 1 2 2 6 1v1h-12l-9-5-1-3h-2l-3-7v-12z" fill="#F6F9E7"/>
<path transform="translate(1340,529)" d="m0 0h2l1 7 11 2-1 2-5 1h-17l-1-5 5-3 2-3z" fill="#135648"/>
<path transform="translate(1352,1359)" d="m0 0 2 2-1 4-1-1-69-1 2-2h67z" fill="#549571"/>
<path transform="translate(750,224)" d="m0 0h9l3 3 1 3 7 1v1h-8l-1 4-7 2v-2h2v-4l-5-1v2l-5-1 2-7z" fill="#104B3D"/>
<path transform="translate(1126,1277)" d="m0 0h2l7 19v4l-4-2-8-7v-13z" fill="#FEFEFC"/>
<path transform="translate(729,841)" d="m0 0h5l5 8 3 6-1 2h-6l-7-5v-9z" fill="#FBFDF8"/>
<path transform="translate(1118,450)" d="m0 0 5 2v3h-2v11l-1 3-1 33-2 4v-55z" fill="#34745A"/>
<path transform="translate(639,1052)" d="m0 0h9v1l-16 3 5 1v1l-16 2h-23l4-2 9-2 23-3z" fill="#4B8F6D"/>
<path transform="translate(518,779)" d="m0 0h4l-1 3-5 2-1 4-1 1h-9l-9-3v-2l12-3z" fill="#05302E"/>
<path transform="translate(688,955)" d="m0 0 6 1 12 7 1 4-8 2-6 1-1-5v-5l-5-4z" fill="#6CAC7F"/>
<path transform="translate(1158,188)" d="m0 0h3l3 5 3 4-1 3 8 15 2 5v5l-2-1-8-16v-2h-2l-3-8-3-2-1-7z" fill="#236B55"/>
<path transform="translate(1151,544)" d="m0 0 3 1 1 11-4 9-5 4h-6l5-6 4-10 1-8z" fill="#0C3733"/>
<path transform="translate(692,940)" d="m0 0h15l11 4-6 6-6-1-13-7z" fill="#519771"/>
<path transform="translate(534,777)" d="m0 0h16v3 2l-4 2h-6-3l-7 1-3-3 1-2-3-2z" fill="#064439"/>
<path transform="translate(1495,769)" d="m0 0 2 1-10 9-1 4-2 2-5 1 8 1 1 2-6 1-4 1-3-2v-2l-5 3h-2l-1 3-4-1 13-9h2v-2l10-6z" fill="#509670"/>
<path transform="translate(750,440)" d="m0 0 7 6 16 16 9 12-4 1-1-5-3-1v-3l-4-2-8-7-4-4v-2l-4-2-3-3z" fill="#31775D"/>
<path transform="translate(1132,252)" d="m0 0 3 1 2 9 4 2h-2l3 8v6l-8-6-3-9v-10z" fill="#5EA479"/>
<path transform="translate(1309,252)" d="m0 0h6l3 4h-3l1 2 4 1v2h-2v6l-6 1-4-6v-7z" fill="#114D3F"/>
<path transform="translate(647,841)" d="m0 0h28v1l-22 1-8 1-3 1v2l-4 3h-9l-1-5-2-1z" fill="#08463B"/>
<path transform="translate(1262,404)" d="m0 0 2 4-1 2 2 2-7 2v3h-2v2l-4 4h-4l-3-5 7-5 1-2h6v-2h-3v-2z" fill="#09473B"/>
<path transform="translate(1652,1431)" d="m0 0h4v5l-11 9-5 2 1-4-2-1v-3l-2-2 10-3z" fill="#124039"/>
<path transform="translate(1278,1024)" d="m0 0 5 1 9 6v4l-3 1-5-5-5-1 1 6h-6l-1-1 1-7z" fill="#58A076"/>
<path transform="translate(580,1327)" d="m0 0h8v1l6 1 1 5-27-2-4-4z" fill="#064439"/>
<path transform="translate(658,821)" d="m0 0h2v2h3v2l5 2 4 3h-2l2 5-2 2-12-6-2-4 1-2-2-1h3z" fill="#397C63"/>
<path transform="translate(1456,797)" d="m0 0 2 1-2 4-7 5-6 2-6 4h-2l-1 3-4 3-6 2-1 2h-5l1-2 7-4 5-4h3v-2h2v-2l3-3 10-4 3-1v-2z" fill="#2E715B"/>
<path transform="translate(1399,987)" d="m0 0 6 2 3 5 9 19 1 4-5-5-7-9-5-11-2-1z" fill="#052F2E"/>
<path transform="translate(1069,1012)" d="m0 0 1 2 7 1 4 4 6 2 1 6-10-3-11-5-1-2 2-1z" fill="#509470"/>
<path transform="translate(682 1e3)" d="m0 0h1l-1 8-7 11-8 9h-2l1-4 6-8 2-6h2l2-6 4-2z" fill="#052F2E"/>
<path transform="translate(1522,1438)" d="m0 0 4 2 8 2 2 2-1 2h-29l1-2 13-3z" fill="#054036"/>
<path transform="translate(1330,932)" d="m0 0 3 1-6 5-4 1-2 2-5 3-8 3-4-1v-2l15-8z" fill="#17473D"/>
<path transform="translate(822,411)" d="m0 0 4 2 1 4 4 1 1 3h8l-2 2-5 1-1 5h-1l-2-9h-8l-4 1-2 5-1-4h-7v-1l9-2 3-3z" fill="#448869"/>
<path transform="translate(1444,807)" d="m0 0 3 1-3 3h-2l-1 3-11 8-2 3h10v1l-18 1-1-3 4-1 2-4 6-2 8-7z" fill="#509671"/>
<path transform="translate(820,394)" d="m0 0h7l5 3-1 7-2 1-3-5h-6v4h2v4l-2-1-4-1v-9z" fill="#124A3C"/>
<path transform="translate(1177,291)" d="m0 0h3l3 8v15l-1 2-4 1v-9l-2-16z" fill="#519671"/>
<path transform="translate(1486,966)" d="m0 0 4 1 10 10 10 13-2 5-5-3-3-4h5l-7-8-12-12z" fill="#519471"/>
<path transform="translate(1445,1054)" d="m0 0h11l20 3 16 2-3 3-29-2v-1l6-1-16-2-5-1z" fill="#4F926F"/>
<path transform="translate(1176,225)" d="m0 0h2l5 12v3l-6 1-4-1v-2h-2l2-7z" fill="#266D56"/>
<path transform="translate(748,866)" d="m0 0 4 1 9 7 3 3-1 5-3 4-5-1-3-2 1-3 6 2-2-7-2-2-5-1-3-3z" fill="#0F3D37"/>
<path transform="translate(1623,723)" d="m0 0 1 3-9 14-7 1-3-2 7-2v-2h-37v-1l34-1 7-1z" fill="#4F9470"/>
<path transform="translate(504,691)" d="m0 0 4 1 5 4 4-1 9 3 2 3-1 4h-2v2h-2v-2l-5-2-7-5v-2l-4-2z" fill="#377961"/>
<path transform="translate(880,448)" d="m0 0h3l9 11 1 4h-3v-4l-6-1-3-1-5 2-3 1v2l-2-1 4-6z" fill="#184A3F"/>
<path transform="translate(1332,598)" d="m0 0h10l5 2 2-1v3h-2l-1 4-3 1-5-3-6-1-8 1-2-2z" fill="#73B282"/>
<path transform="translate(1326,224)" d="m0 0h9l4 2v6l-4 1-8-3v2l-3 1-1-1v-5z" fill="#145142"/>
<path transform="translate(635,1037)" d="m0 0h6l1 1h5l-4 2-28 6-2-1v-2l14-5z" fill="#549A73"/>
<path transform="translate(1075,1030)" d="m0 0h8l8 1 2 3v5l-2 1-7-2-10-6z" fill="#FFFFFE"/>
<path transform="translate(677,989)" d="m0 0h1l-1 9-6 15-4 1h-2l-1 3-1-2 6-10 5-13z" fill="#06312F"/>
<path transform="translate(1501,725)" d="m0 0 2 3-2 3 2 1 1-2-2 10-3 6 1 2-4 1-1-12 4-11z" fill="#115346"/>
<path transform="translate(1036,1092)" d="m0 0h12l-3 5-2 5-4 2-4-4v-4h-2v-2z" fill="#083B32"/>
<path transform="translate(1262,773)" d="m0 0 4 1 2 23v7h-1l-1-5-2-3-3-13z" fill="#1B4C41"/>
<path transform="translate(1471,1223)" d="m0 0h80v1l-13 1-1 2h-6l-2-1v-2l-10 1-48-1z" fill="#054339"/>
<path transform="translate(840,931)" d="m0 0 2 1-3 4 9-1h3v2l27 1v1h-46v-2z" fill="#08473D"/>
<path transform="translate(539,739)" d="m0 0 6 3v2h3l1 7 4 2 8 7h-3l-16-12-6-5 1-2h2z" fill="#589F75"/>
<path transform="translate(1294,408)" d="m0 0 3 1 7 9 4 4v2l-7-1-10-10 1-4z" fill="#FEFEFB"/>
<path transform="translate(1424,338)" d="m0 0 2 3-6 10-4 10v3h2l-1 2-7-5 1-5 3-2 1-3h2l1-4z" fill="#0B423A"/>
<path transform="translate(655,1025)" d="m0 0h5l-6 9 3 2-5 2-12 1 1-3 9-6z" fill="#0C3C36"/>
<path transform="translate(736,952)" d="m0 0 5 1 2 1v3l-10 4-7-1-4-4h6z" fill="#5BA076"/>
<path transform="translate(563,781)" d="m0 0h6l12 6-3 2-13 2 2-1-5-5z" fill="#083A34"/>
<path transform="translate(1380,970)" d="m0 0h11l13 4-3 2-9 1-6-1-4-3v-2z" fill="#083431"/>
<path transform="translate(1341,953)" d="m0 0 5 1 12 2 3-1v-2h4l-1 3-8 4h-9l-7-3-1-3z" fill="#61A379"/>
<path transform="translate(1560,696)" d="m0 0h2l1 3-3 3-5 4-6 4-2 1v-2l-2-1 1-2h2l-1-3 7-5h6z" fill="#397B62"/>
<path transform="translate(797,1036)" d="m0 0 5 1-1 4-10 8-6-1v-3l8-5z" fill="#519671"/>
<path transform="translate(1415,951)" d="m0 0h4v4h-2l-2 4-4 4h-5l-1-5 5-5z" fill="#4B906E"/>
<path transform="translate(577,618)" d="m0 0 8 1 7 3 13 5 16 8-3 1-15-6-14-6-12-5z" fill="#FFFFFE"/>
<path transform="translate(700,379)" d="m0 0 2 4 1 5v11l-2 4h-2v-2h-2l2-7-11-3-9-2-14-1v-1h15l16 4 6 3-2-10z" fill="#579B74"/>
<path transform="translate(1388,955)" d="m0 0 3 1-4 6-3 4v2l-11-1v-3z" fill="#6AAB7E"/>
<path transform="translate(1380,847)" d="m0 0 4 1-3 4-1 4-4 2-3 1 3 1-1 2-10-3 5-5z" fill="#5AA076"/>
<path transform="translate(606,1306)" d="m0 0h1l-1 7-5 6-7 3-1-5 8-8z" fill="#FEFEFC"/>
<path transform="translate(796,1381)" d="m0 0h2l11 30-1 4-3-4-3-6-2-7-3-10z" fill="#FEFEF8"/>
<path transform="translate(1538,1224)" d="m0 0h13v3l3 1 3 5-9-3-4-1-17-1v-1l8-1z" fill="#1B5241"/>
<path transform="translate(655,1050)" d="m0 0 4 1 2 3-18 3h-15l4-2 20-4z" fill="#1C5B4A"/>
<path transform="translate(848,1042)" d="m0 0 7 1 1 4-5 1-3-1-6 7h-4l2-5 4-5z" fill="#4E926F"/>
<path transform="translate(767,983)" d="m0 0 1 3-10 14-9 10-3 3-2-1 8-11 5-5 6-9z" fill="#083230"/>
<path transform="translate(573,783)" d="m0 0 9 3 4 2v2l-8 7-7-1 1-4 2-1-1-2 7-2-7-3z" fill="#3A7D63"/>
<path transform="translate(470,736)" d="m0 0h27v3l-3 1-1-1-2 2-5-2-2 1-5-1-1 1 3 2-5-1-5-2z" fill="#02332C"/>
<path transform="translate(815,424)" d="m0 0 4 1 1 4h3l2-1 2 1 1-4 3-1v6l-3 3-6 1-7-3-1-5z" fill="#12483B"/>
<path transform="translate(924,187)" d="m0 0h3v8l-4 11-2 3v3l-2-1-1-3 3-10 1-8z" fill="#226A54"/>
<path transform="translate(1333,446)" d="m0 0h4l4 9v4l-8-1-2-3v-6z" fill="#FEFEFA"/>
<path transform="translate(1382,342)" d="m0 0h1l1 8v27h-1l-1-11h-2l-1-8 1-7 1-1z" fill="#549973"/>
<path transform="translate(1267,1040)" d="m0 0 4 1 12 11 3 2-1 4-3-3-5-2-1-3-5-2-4-4z" fill="#5FA579"/>
<path transform="translate(734,986)" d="m0 0h1v8l-4 9-3 4h-2l-2 4h-3l2-4 8-14z" fill="#579F75"/>
<path transform="translate(1449,859)" d="m0 0h13l5 2-3 3v2l-5 1-6-4-6-2z" fill="#589F75"/>
<path transform="translate(560,678)" d="m0 0 2 3 1 4h3l2 2 3 1 3 5 3 9-1 4-5-9-6-8h-3l-2-7z" fill="#03372F"/>
<path transform="translate(1122,409)" d="m0 0 3 3 9 19 1 5-4-2-8-17-2-7z" fill="#1D4D41"/>
<path transform="translate(1185,220)" d="m0 0h1l1 9-3 10-3-4-3-11v-3h3l3 3z" fill="#4D916F"/>
<path transform="translate(1475,968)" d="m0 0 4 2 9 7 1 3h-8l-5-2-1-3z" fill="#3B7E64"/>
<path transform="translate(1418,933)" d="m0 0 7 1-4 4-15 7v-5h2l1-2 3-2z" fill="#042F2D"/>
<path transform="translate(580,710)" d="m0 0 2 1 5 13 3 3 5 3 3 4v2l-6-1-4-4v8h-1l-2-14-5-13z" fill="#3F8266"/>
<path transform="translate(1337,513)" d="m0 0h2l-1 4-4 6v6l1 5-5 2-1 4v-10l3-10z" fill="#4F9470"/>
<path transform="translate(1465,403)" d="m0 0 11 2v4l-5 5-1-1h-5z" fill="#4F9370"/>
<path transform="translate(618,1351)" d="m0 0h3l4 6 2 7v8h-3l-3-9-2-9z" fill="#FBFCF7"/>
<path transform="translate(1225,331)" d="m0 0h11l-2 4h-6l-7 3h-5l-1-3 1-2z" fill="#FEFEF8"/>
<path transform="translate(1014,151)" d="m0 0h1v8l-2 1-2 9-2 1-3 5h-1l1-8 6-15z" fill="#1E604F"/>
<path transform="translate(725,1341)" d="m0 0 2 1v8l-1 2h-2l-2 7-2-1-2-5 1-4 2-4h3z" fill="#093632"/>
<path transform="translate(700,850)" d="m0 0 6 1 7 5-4 4-4 2v-3h-2v-2h-2l-3-3z" fill="#5BA277"/>
<path transform="translate(1097,382)" d="m0 0 6 4 14 14 4 6v2l-4-2-4-4-6-8-6-5v-2l-3-1z" fill="#165545"/>
<path transform="translate(1099,1335)" d="m0 0 1 2-5 13-2 1-1-3v-2l1-5h2l2-5zm-9 3h1v6l1 3-3 1v4h-2l-1 2 1-9z" fill="#205A49"/>
<path transform="translate(749,971)" d="m0 0h3l1 3-2 5-2 8h-2l-2 2h-3l1-6z" fill="#063330"/>
<path transform="translate(777,476)" d="m0 0 5 3 5 7 4 2 1 6-5-1-10-13z" fill="#276751"/>
<path transform="translate(1227,317)" d="m0 0 4 1-1 4-14 2-7 3-4-1 12-6z" fill="#73B282"/>
<path transform="translate(1168,316)" d="m0 0h3l-1 9-2 7-3 2-2-7 3-9z" fill="#FFFFFE"/>
<path transform="translate(1255,664)" d="m0 0h1l1 8v25l-2 2-2-8v-9l1-5h2l-1-3z" fill="#16463D"/>
<path transform="translate(881,456)" d="m0 0 4 1 2 1-1 4-7 1v2l-5 1-2-4 5-5z" fill="#05362E"/>
<path transform="translate(815,411)" d="m0 0h5v5l-4 4-3 1h-7l-1-5h9z" fill="#043830"/>
<path transform="translate(1073,1381)" d="m0 0 2 2 2 4h2v-3h2l-3 11-2 3-1-9h-3l-2 9-1 2-2-1 1-5z" fill="#22614E"/>
<path transform="translate(747,438)" d="m0 0 3 1 3 8 5 4 5 6 5 5v3l-8-6-9-9-2-4v-6h-2z" fill="#266854"/>
<path transform="translate(1141,330)" d="m0 0 5 4 3 3v3l4 2v2h2l5 6v2l-5-2-8-8-6-8z" fill="#61A67A"/>
<path transform="translate(879,283)" d="m0 0h10l2 1-1 8-5-1-7-4z" fill="#FFFFFE"/>
<path transform="translate(1188,409)" d="m0 0h3l7 11-2 2-1-3-6 1-1-4 2-2v-2l-4 4-4 5h-2l2-4z" fill="#0E4C3F"/>
<path transform="translate(1392,988)" d="m0 0 2 4 4 10 4 1 3 4 2 9v3l-4-4-5-9v-2h-2l-4-11z" fill="#10433A"/>
<path transform="translate(597,657)" d="m0 0 2 2-1 5-3 4-1 4h-9l-2-1v-2l9-4z" fill="#FFFFFE"/>
<path transform="translate(743,400)" d="m0 0 3 3 1 9h-2v6l-3 2-1-4v-14z" fill="#054238"/>
<path transform="translate(1457,994)" d="m0 0 10 3 8 4-4 2-4-1-1 2-2-2-6-1-2-4z" fill="#03382F"/>
<path transform="translate(1265,424)" d="m0 0h5v6l-2 2-7 1-5-2v-6h2v2l5 1v-2h2z" fill="#03352E"/>
<path transform="translate(1393,410)" d="m0 0 4 1 2 5-2 4h-6l-3-3-1-4z" fill="#246B54"/>
<path transform="translate(1286,1343)" d="m0 0h2v9h-2l-1 7-4 2v-12l3-5z" fill="#06342F"/>
<path transform="translate(701,967)" d="m0 0 4 1-4 1v3l-16 5h-6l1-3 19-6z" fill="#093632"/>
<path transform="translate(1454,865)" d="m0 0 5 1 11 9 1 2-12-2-2-1z" fill="#052E2D"/>
<path transform="translate(933,541)" d="m0 0h1l1 12 7 11 6 3 12 1v1h-13l-6-3-7-8-2-6v-8z" fill="#FCFDEC"/>
<path transform="translate(743,346)" d="m0 0h1v9l-4 15-3 6-3-3v-5h2v-2h2l1-5 3-7z" fill="#31775D"/>
<path transform="translate(709,398)" d="m0 0 4 1-1 6-7 7h-2v-6l4-7z" fill="#FEFEFD"/>
<path transform="translate(1109,387)" d="m0 0 5 1 7 7 1 3-9-1-4-4z" fill="#FEFEFC"/>
<path transform="translate(908,332)" d="m0 0h2l2 4 3 3 1 7-2 5-2-2-5-13z" fill="#61A67A"/>
<path transform="translate(762,937)" d="m0 0 6 2 10 6 4 2-4 2-7-3-8-4-2-4z" fill="#113E38"/>
<path transform="translate(576,733)" d="m0 0 2 1 3 6 3 1 2 10 1 2-6-2-3-3v-2l-2-1h2z" fill="#145849"/>
<path transform="translate(930,1052)" d="m0 0 1 2h2l2 4 1 7-5 1-3-5-1-8z" fill="#74B383"/>
<path transform="translate(1104,399)" d="m0 0 6 1 1 3 3 1 4 7v3l-4-1-5-6-5-7z" fill="#054238"/>
<path transform="translate(1349,1351)" d="m0 0 2 3v2h-65l1-4v3l61-1z" fill="#3D7F65"/>
<path transform="translate(1390,815)" d="m0 0 7 2 4-1-1 3-9 6h-3v-8z" fill="#559C74"/>
<path transform="translate(1364,663)" d="m0 0 3 3 1 7-2 1 1 4 2-1-1 6h-3l-2-6h-2l2-4-1-3z" fill="#4B906E"/>
<path transform="translate(1170,344)" d="m0 0 2 1-1 7h-2l-1 6 2 1-5-1-4-5 2-1 2 1 1-5z" fill="#5BA177"/>
<path transform="translate(1307,1290)" d="m0 0 1 3-1 10-2 3h-2v2h-2v3h-2v-7l4-5 3-8z" fill="#063B31"/>
<path transform="translate(582,985)" d="m0 0h2l-1 3-7 6-2 4h-3l-2 4-5 5-2-1 7-11 7-4z" fill="#529772"/>
<path transform="translate(1477,882)" d="m0 0 4 1 11 7 1 2h-13v-5l-1-3h-2z" fill="#05302E"/>
<path transform="translate(1227,1042)" d="m0 0h6l6 4 1 3-1 2h-3v-2l-12-3 1-3z" fill="#559973"/>
<path transform="translate(589,1008)" d="m0 0 2 1-4 5 6 1v1l-13 3h-5l2-4z" fill="#084339"/>
<path transform="translate(1414,930)" d="m0 0 8 1 17 6-4 2h-9l-5-1 2-4-9-3z" fill="#519571"/>
<path transform="translate(1384,763)" d="m0 0h2l1 31 1 16v12h-1l-2-22-1-33z" fill="#115043"/>
<path transform="translate(1184,319)" d="m0 0 2 2-4 8-2 3-4 2-2 3 1-5 2-8 3-3h2z" fill="#5DA478"/>
<path transform="translate(1072,1389)" d="m0 0h3l1 13-2 8h-1v-10h-2v-2h-2l2-7z" fill="#1C5A48"/>
<path transform="translate(652,995)" d="m0 0h7l-3 3-9 3h-3l-10 2-7 1 3-2 8-3 12-3z" fill="#32765E"/>
<path transform="translate(924,864)" d="m0 0 2 1-1 3-8 8-4 3-4 1 2-4 8-8 2-3z" fill="#052C2C"/>
<path transform="translate(1446,441)" d="m0 0h2l2 5 11 7 1 4h-4l-5-5-10-7 1-3z" fill="#FFFFFE"/>
<path transform="translate(679,353)" d="m0 0v3l-6 11-10 5-4-1 9-6z" fill="#FCFDEC"/>
<path transform="translate(658,343)" d="m0 0 4 2 8 11v2h2v2l-4 1-4-5-6-10z" fill="#094138"/>
<path transform="translate(1074,168)" d="m0 0 1 2h2l4 14-1 4-2-4-3 1-2-9z" fill="#1E604F"/>
<path transform="translate(1089,1006)" d="m0 0 8 1 13 1h6l-1 2-8 2h-8l-5-3-5-2z" fill="#519571"/>
<path transform="translate(947,311)" d="m0 0 5 1v2l-6 3h-3v2h-3l-1 2h-3l-1-4z" fill="#5FA579"/>
<path transform="translate(603 1e3)" d="m0 0h2v2h-2l-1 3-3 1-4 1-3 4 3 1h-9l4-6 7-4z" fill="#02342D"/>
<path transform="translate(922,595)" d="m0 0 1 4v12l1 6h2l1 3 5 4 1 3 4 4-5-2-5-4-5-8-1-5v-15z" fill="#105245"/>
<path transform="translate(1455,932)" d="m0 0 5 1 14 7 12 9 2 3-4-2-11-7-18-10z" fill="#FFFFFE"/>
<path transform="translate(1577,871)" d="m0 0 6 1-1 4-10 4-4-2 1-3 4-1-1-2z" fill="#5AA277"/>
<path transform="translate(595,823)" d="m0 0h27v1l-23 2h-17l1-2z" fill="#519872"/>
<path transform="translate(796,636)" d="m0 0 6 4 3 7v7l-3 5-1-4-1-12-4-5z" fill="#61A67A"/>
<path transform="translate(1206,507)" d="m0 0h32l-1 4-3-1-28-1z" fill="#042C2B"/>
<path transform="translate(881,259)" d="m0 0h7l2 2v5l-11-2-3 1-1-3 2-2z" fill="#367A60"/>
<path transform="translate(604,1057)" d="m0 0h21v2l-4 1h-23l4-2z" fill="#3A7E62"/>
<path transform="translate(942,577)" d="m0 0h13l6 3-2 1-5-2h-11l-6 3-5 4-4 4h-2l-1 3-1-2 7-8 5-4z" fill="#105144"/>
<path transform="translate(948,508)" d="m0 0 2 2v3h2l-1 8-3 4h-2v-12z" fill="#042C2B"/>
<path transform="translate(963,408)" d="m0 0 1 4-2 5h-2l-2 4-4 1-1 4-1-2 6-12z" fill="#16453C"/>
<path transform="translate(936,333)" d="m0 0 2 4 1 3-7 8-3-1 3-9h2z" fill="#5FA579"/>
<path transform="translate(1331,247)" d="m0 0 10 1 3 2-1 1h-7l-5 1v6l-4-2 1-4h2z" fill="#559772"/>
<path transform="translate(1165,202)" d="m0 0h2l8 16 1 7-2-1-8-16v-2h-2z" fill="#226A54"/>
<path transform="translate(663,1255)" d="m0 0 2 3 2 8-1 15-2 3-1-3z" fill="#2D6D56"/>
<path transform="translate(1425,815)" d="m0 0 1 3-16 10-7 4 2-4h2v-2h2l2-4 6-3 4 1v-2z" fill="#033930"/>
<path transform="translate(1353,519)" d="m0 0 5 1-2 4-6 2-4 1-1 2-1-4 5-5z" fill="#125447"/>
<path transform="translate(759,225)" d="m0 0h2l2 5 7 1v1h-8l-1 4-7 2v-2h2v-8l3-1z" fill="#1E604F"/>
<path transform="translate(563,763)" d="m0 0 5 2v2l10 4 3 6 4 5h-3l-5-5-5-4-5-5z" fill="#5AA277"/>
<path transform="translate(1169,281)" d="m0 0 7 3 3 5v2l-3 3h-2l-4-6-1-2h2z" fill="#64A87B"/>
<path transform="translate(1440,1222)" d="m0 0h24v1h-17l-1 4 7 1-4 1-9-2z" fill="#1C5547"/>
<path transform="translate(1301,966)" d="m0 0 4 2 6 10v4l-4-2-5-7z" fill="#F7FBF5"/>
<path transform="translate(727,464)" d="m0 0 4 1v6l-4 3-6-1-1-2 2-1v-2z" fill="#0D4B3F"/>
<path transform="translate(1378,367)" d="m0 0 4 2v18l-3 3-1-6 2-7-1-1z" fill="#246C55"/>
<path transform="translate(976,1025)" d="m0 0 8 2-1 3h-12l-5-1v-3z" fill="#579B74"/>
<path transform="translate(606,877)" d="m0 0 2 1-7 7-3 7h-9l4-4 10-8z" fill="#073832"/>
<path transform="translate(1362,666)" d="m0 0 2 8-2 1-3 5h-4l-1-3 1-2h2v-3h2l1-4z" fill="#3E8065"/>
<path transform="translate(1345,451)" d="m0 0 11 5 4 2-7-1-6-1-2 6-3-3-1-5 1-2z" fill="#276E57"/>
<path transform="translate(1271,844)" d="m0 0h1l1 8v15l-2 3-2-5 1-13z" fill="#042C2C"/>
<path transform="translate(1455,840)" d="m0 0 6 2h2v2h2v2l-13-1-15-3v-1h8l9 1z" fill="#3A7D63"/>
<path transform="translate(1495,769)" d="m0 0 2 1-10 9-1 4-2 2-5-1-1-3 10-6z" fill="#4E946F"/>
<path transform="translate(1505,501)" d="m0 0h6l-2 3-4 1-1 2-9 1-2-1v-2z" fill="#02312B"/>
<path transform="translate(1262,412)" d="m0 0 3 1 1 5h-6v2h-3l-2 4-2 1v-4l1-2h2v-2h2v-3z" fill="#4F926E"/>
<path transform="translate(1443,1036)" d="m0 0 11 3 9 2 1 2h-11l-1-1-10-2z" fill="#2D705A"/>
<path transform="translate(792,1034)" d="m0 0 2 1-4 8-5 2-1 2-2-2 1-6 2-2v2l5-1z" fill="#71B181"/>
<path transform="translate(1381,387)" d="m0 0 1 3-1 3 13-4 4 1-4 4-5 2-4-1h-5v-7z" fill="#569973"/>
<path transform="translate(1444,963)" d="m0 0 4 1h-2v2l-4 1-1 2-4 2-3 1-3-5z" fill="#053A31"/>
<path transform="translate(714,736)" d="m0 0 3 1 3 7v7l-4-1-3-12z" fill="#FFFFFE"/>
<path transform="translate(1438,558)" d="m0 0h3l2 6-2 3-7 1-1-2 1-5 4 1z" fill="#01332B"/>
<path transform="translate(680,1370)" d="m0 0 2 3 1 4v20l-3 11-2-4 3-8 1-15h-2z" fill="#3C7D61"/>
<path transform="translate(767,873)" d="m0 0 3 1 1 3v8l-3 5-1-4v-5h-2l1-7z" fill="#FFFFFE"/>
<path transform="translate(1328,725)" d="m0 0 3 3 1 2v8l-4 5-1-8z" fill="#1E5D4B"/>
<path transform="translate(742,452)" d="m0 0 2 4-1 7-8 5-4 3 2-4 4-5 3-5z" fill="#FCFDED"/>
<path transform="translate(770,232)" d="m0 0 5 5 1 9-3 1-2-2-2-6h2z" fill="#246753"/>
<path transform="translate(1343,231)" d="m0 0h5l4 5 1 3v7l-8-8 2-6z" fill="#286A55"/>
<path transform="translate(1431,974)" d="m0 0 7 2v2l-6 3h-2v2l-3-1-1-3z" fill="#02352D"/>
<path transform="translate(1499,716)" d="m0 0h1l-1 9-3 9h-2l-1 3v-8z" fill="#02362E"/>
<path transform="translate(793,1441)" d="m0 0h11l-6 6h-7l1-5z" fill="#174A3F"/>
<path transform="translate(1362,1392)" d="m0 0h2l7 19v5l-3-4-4-9-2-9z" fill="#FEFEF8"/>
<path transform="translate(595,1058)" d="m0 0h7v1l5 1v1l-23 1-2-1v-2z" fill="#5CA077"/>
<path transform="translate(960,1007)" d="m0 0 24 1v2l-17 1-6-2z" fill="#529671"/>
<path transform="translate(1328,250)" d="m0 0h2v2l-2 1 1 4 2 1v-6l2 1 1 11h-4l-4-4v-9z" fill="#226A54"/>
<path transform="translate(612,1442)" d="m0 0 12 2h6l-4 2-22 1 1-3z" fill="#155344"/>
<path transform="translate(703,1028)" d="m0 0h2v2h-3l-2 4-14 6h-2v2l-6 1 5-4 11-6 6-1 1-3z" fill="#34795F"/>
<path transform="translate(1568,736)" d="m0 0h4v2l-5 1v2l-7 1-8-1 3-2z" fill="#09483D"/>
<path transform="translate(1272,405)" d="m0 0 7 1 3 3-1 9-3-2-1-6-2-1v-2h-3z" fill="#3E8264"/>
<path transform="translate(1352,864)" d="m0 0h3l-1 3-18 12-2-1 4-4h2v-2l5-3z" fill="#1C4F43"/>
<path transform="translate(908,310)" d="m0 0 5 1 1 2v6h-6l-1-7z" fill="#FFFFFE"/>
<path transform="translate(1033,1012)" d="m0 0h11l12 1v2l2 1-9-1-6-1h-9l-10 2h-5l3-2z" fill="#6FB080"/>
<path transform="translate(1389,982)" d="m0 0h5v2h3l1 8-4 1-3-6v-3h-2z" fill="#05312E"/>
<path transform="translate(604,967)" d="m0 0 2 1-6 5-5 6-4 2-2 2-5 2 6-7z" fill="#4D936F"/>
<path transform="translate(1250,638)" d="m0 0 2 2 1 4v14l-3-3-1-16z" fill="#042D2C"/>
<path transform="translate(1259,394)" d="m0 0 8 1 1 2-5-1 2 3-1 4-4 1-2-5 1-3-2-1z" fill="#236753"/>
<path transform="translate(1056,129)" d="m0 0 3 1 7 12-1 4-3-4v-2l-3-1-4-8z" fill="#206250"/>
<path transform="translate(1508,791)" d="m0 0h12v2l29 1v1h-21l-15-2-5-1z" fill="#105143"/>
<path transform="translate(545,635)" d="m0 0 3 3v3h2l3 10-3 4-1-2v-7h-2l-2-5z" fill="#226451"/>
<path transform="translate(1092,1346)" d="m0 0 2 2-3 9-2 2-3-1 1-6h2v-4z" fill="#042E2C"/>
<path transform="translate(1331,1220)" d="m0 0h22l1 2-18-1v2l-8 4 2-6z" fill="#2F6954"/>
<path transform="translate(827,1027)" d="m0 0 2 1-3 4 1 2-7 4-3-1 2-4z" fill="#61A77A"/>
<path transform="translate(1522,496)" d="m0 0 4 1-3 1-3 3-9 1-6-1 4-2z" fill="#215A47"/>
<path transform="translate(1472,360)" d="m0 0m-4 1 6 1v2l-7 5-6-1 2-1v-2l4-2z" fill="#266A55"/>
<path transform="translate(885,1284)" d="m0 0h5l1 1v6l-2 2h-4z" fill="#062F2E"/>
<path transform="translate(1317,1272)" d="m0 0 3 1 3 9h-7l-1-3z" fill="#FCFDEC"/>
<path transform="translate(583,1222)" d="m0 0h8l-3 2-5 1 7 2v1h-16l4-1-1-4z" fill="#215F4C"/>
<path transform="translate(740,983)" d="m0 0 2 2-1 6-4 4-2 5h-3l2-6z" fill="#367960"/>
<path transform="translate(508,736)" d="m0 0 15 1 10 3 2 1v2h-6v-3l-12-1-9-2z" fill="#4C926E"/>
<path transform="translate(746,733)" d="m0 0 2 4 4 7v3l-5-2-3-4 1-7z" fill="#FEFEFB"/>
<path transform="translate(1195,454)" d="m0 0 4 1-1 6-2 2-5-1 1-5 3-1z" fill="#01322B"/>
<path transform="translate(821,417)" d="m0 0 5 1 3 1 1-2 2 4h8l-2 2-5 1-1 5h-1l-2-9h-9z" fill="#2F735B"/>
<path transform="translate(1032,297)" d="m0 0 4 2 1 6-1 2-5-2-2-2 2-1-2-2z" fill="#195B4C"/>
<path transform="translate(1576,1429)" d="m0 0h2l3 6v3l4 2 2 5-4-2-3-3v-2h-2l-3-6z" fill="#15453C"/>
<path transform="translate(791,949)" d="m0 0 3 1 2 4-1 10-2 6h-1v-17z" fill="#FFFFFE"/>
<path transform="translate(655,845)" d="m0 0h5v3l-9 3h-6l4-4z" fill="#042E2C"/>
<path transform="translate(1456,840)" d="m0 0h12l4 2-1 4h-5l-3-2v-2l-3 1-4-1z" fill="#4B906E"/>
<path transform="translate(1436,809)" d="m0 0 2 1-2 1zm-2 2 2 1-2 4-4 3-6 2-1 2h-5l1-2 7-4 5-4h3z" fill="#387B62"/>
<path transform="translate(1134,551)" d="m0 0m-7 1h7l1 3-3 3-7-1 1-4z" fill="#13463B"/>
<path transform="translate(1388,380)" d="m0 0 3 3-3 6h-5l1-7z" fill="#FFFFFE"/>
<path transform="translate(754,252)" d="m0 0h9l2 1v2l2 2-1 2-5-1v-3l-7 1z" fill="#044137"/>
<path transform="translate(1170 1e3)" d="m0 0 4 1 5 4 3 5-1 4-2-6-5-2-5-3z" fill="#539772"/>
<path transform="translate(496,870)" d="m0 0 6 3 4 3-4 1-6-2-6-1v2h-2l1-3z" fill="#5BA277"/>
<path transform="translate(590,866)" d="m0 0h10l-3 2-12 3h-6l4-3z" fill="#549B73"/>
<path transform="translate(460,732)" d="m0 0 2 1 10 1-3 2-2 1 5 2-4 2h-4l-4-6z" fill="#579C74"/>
<path transform="translate(714,475)" d="m0 0h2v2l2 1-3 3-5 3-7 1 1-2 4-2 4-4h2z" fill="#06443A"/>
<path transform="translate(631,473)" d="m0 0 8 1 19 1v1l-12 1h-9l-3 1z" fill="#246B55"/>
<path transform="translate(910,285)" d="m0 0 3 1-2 5-3 5-2 6-2-1 1-8z" fill="#569D74"/>
<path transform="translate(1084,272)" d="m0 0 2 1v6l-3 5-3-1 1-7z" fill="#FEFEFC"/>
<path transform="translate(1047,146)" d="m0 0 3 1 3 7 2 1-1 5-6-5 1-2-3-3z" fill="#3B7D64"/>
<path transform="translate(788,1365)" d="m0 0h4l3 7v4l-4-2-3-4z" fill="#FEFEFA"/>
<path transform="translate(933,1049)" d="m0 0 5 2 13 4 12 1v1h-18l-10-5z" fill="#74B383"/>
<path transform="translate(1345,1020)" d="m0 0 5 2 9 7-1 2-5-2-9-7z" fill="#19493F"/>
<path transform="translate(1389,938)" d="m0 0h3l-1 3-15 6 3-4 3-1-5-1v-1z" fill="#3A7F63"/>
<path transform="translate(1524,1025)" d="m0 0h3l2 7v6l-2 1-3-6z" fill="#47896A"/>
<path transform="translate(831,1025)" d="m0 0 7 3 1 3-10-1-1 3-3-1 4-6z" fill="#569A74"/>
<path transform="translate(1505,984)" d="m0 0 4 4 1 3-3 4-7-6v-1h5z" fill="#5AA176"/>
<path transform="translate(767,983)" d="m0 0 1 3-9 13-2-3 6-9z" fill="#124039"/>
<path transform="translate(1473,956)" d="m0 0 5 1 9 8-2 2-8-5v-2h-3z" fill="#579B74"/>
<path transform="translate(1428,821)" d="m0 0 2 1-2 3h10v1l-18 1-1-3z" fill="#5AA277"/>
<path transform="translate(739,636)" d="m0 0 2 1-7 8-3 5v3l-2 4v-4h-2l1-4 6-8z" fill="#60A67A"/>
<path transform="translate(1167,1440)" d="m0 0h5l-3 1-1 4-2 1h-6l1-5z" fill="#1A4D42"/>
<path transform="translate(671,1440)" d="m0 0 5 1v4l-5 2h-4l2-6z" fill="#14463B"/>
<path transform="translate(989,1231)" d="m0 0h2l-1 7-4 4-2-3 2-6z" fill="#0C3834"/>
<path transform="translate(588,1223)" d="m0 0 7 1-1 4-8-1-7-1 4-2z" fill="#01342B"/>
<path transform="translate(1350,644)" d="m0 0 2 2v9l-4 6-3 2h-6l4-2 5-5 1-2z" fill="#5C9F77"/>
<path transform="translate(703,483)" d="m0 0m-6 1m5 0h8l-2 2-15 4-4-1 1-2 6-1 5 1z" fill="#2D6D56"/>
<path transform="translate(680,1381)" d="m0 0h2v15l-2 6h-1v-12z" fill="#07443A"/>
<path transform="translate(1299,1299)" d="m0 0h1l-1 7 2 1h-2l-1 5-2 1-3 6-1-2z" fill="#2D6D56"/>
<path transform="translate(1072,1060)" d="m0 0 9 3 10 5-4 1-15-7z" fill="#569A74"/>
<path transform="translate(1325,742)" d="m0 0h2l-2 4-4 2h-7l-2-2 9-3z" fill="#1B4B40"/>
<path transform="translate(923,593)" d="m0 0h2v9l-1 5 1 5-2 2-1-3v-12z" fill="#054338"/>
<path transform="translate(1137,530)" d="m0 0h1v21l-2 2-1-9z" fill="#2A6C57"/>
<path transform="translate(1142,509)" d="m0 0h1l1 21 2 3-1 4-4-6v-10z" fill="#317059"/>
<path transform="translate(962,495)" d="m0 0h1v14l-1 14-2-3v-12l1-1v-7-3z" fill="#054238"/>
<path transform="translate(742,322)" d="m0 0 2 3 1 2v19h-1v-13l-3 1v-9z" fill="#3A7F62"/>
<path transform="translate(751,248)" d="m0 0h7l1 2-4 1-1 7-4-1z" fill="#62A37B"/>
<path transform="translate(1016,228)" d="m0 0 6 1v3l3 1-1 4-4-1-4-5z" fill="#105246"/>
<path transform="translate(1360,1440)" d="m0 0 7 1-2 3-9 3-2-2 3-3h3z" fill="#103E37"/>
<path transform="translate(607,1325)" d="m0 0h5l-2 1v2l6 1 5 1v1l-16-1v-4z" fill="#4C8F6D"/>
<path transform="translate(1553,1322)" d="m0 0h5v3l-3 3h-7l2-4z" fill="#FEFEFC"/>
<path transform="translate(968,559)" d="m0 0h4l-2 5-6 4-4-1 5-5z" fill="#FCFDEC"/>
<path transform="translate(1455,522)" d="m0 0 2 1-12 12-1 3-3 2-1 3h-2l2-5 7-8z" fill="#28604E"/>
<path transform="translate(972,451)" d="m0 0h1v16l-2 2-2-10z" fill="#FFFFFE"/>
<path transform="translate(836,338)" d="m0 0 5 2 6 7v2l3 1-3 1-11-11z" fill="#529671"/>
<path transform="translate(1149,1056)" d="m0 0 3 1 3-1 1 4h-2l-2 3h-5v-5h2z" fill="#74B383"/>
<path transform="translate(641,1053)" d="m0 0 10 2v1l-8 1h-15l4-2z" fill="#286A55"/>
<path transform="translate(1243,565)" d="m0 0 2 2v11h-3l-1-2v-7z" fill="#05302E"/>
<path transform="translate(883,418)" d="m0 0h1l2 10-2 2-5-4 2-5z" fill="#23614E"/>
<path transform="translate(758,248)" d="m0 0h10l3 1 1 3-17-1z" fill="#2B7059"/>
<path transform="translate(1038,1372)" d="m0 0h5v3h-2l-1 8-3-1z" fill="#052C2C"/>
<path transform="translate(551,1057)" d="m0 0 16 1 8 1v1h-20z" fill="#5CA378"/>
<path transform="translate(685,936)" d="m0 0 9 2 6 1v1l-14 1-2-4z" fill="#09483D"/>
<path transform="translate(1268,806)" d="m0 0h1l1 8v9l-4-2 1-10z" fill="#245848"/>
<path transform="translate(1292,649)" d="m0 0 4 2-1 5-1 4v5l-2-3-1-12z" fill="#4F916F"/>
<path transform="translate(908,286)" d="m0 0 1 2-3 5-1 9-2 1-1 3-2-1 3-11z" fill="#74B383"/>
<path transform="translate(1199,257)" d="m0 0h3v2l4 1v3l-6-1-1 1h-5z" fill="#3F8166"/>
<path transform="translate(1610,1239)" d="m0 0 4 2 7 9-1 2-9-9v-2l-2-1z" fill="#1D5244"/>
<path transform="translate(802,1048)" d="m0 0 2 1-8 8v7h-2l-2-3 1-5 5-5z" fill="#70B081"/>
<path transform="translate(634,702)" d="m0 0 1 2 3 1 5 10v7l-5-10-1-4-3-2z" fill="#01332B"/>
<path transform="translate(1533,634)" d="m0 0 1 3-4 11h-4l3-9z" fill="#0E443C"/>
<path transform="translate(650,574)" d="m0 0h1l2 11v7h-11v-1h10v-5h-3z" fill="#438567"/>
<path transform="translate(1136,497)" d="m0 0 2 4v29h-1l-1-26-1-5z" fill="#125446"/>
<path transform="translate(1111,397)" d="m0 0 4 1 6 8v2l-4-2-4-4z" fill="#18473E"/>
<path transform="translate(1281,368)" d="m0 0 2 1 1 4v10l-2-1-2-6v-6z" fill="#FEFEFC"/>
<path transform="translate(915,348)" d="m0 0h2l1 4 2 1v5l-8 1v-2h4l-2-8z" fill="#509570"/>
<path transform="translate(1e3 281)" d="m0 0 4 1 6 7 3 3-1 3-8-8v-2h-2z" fill="#1E5646"/>
<path transform="translate(990,230)" d="m0 0 4 5 1 6-6 2z" fill="#FFFFFE"/>
<path transform="translate(1525,1439)" d="m0 0 13 2 2 2v4h-5l-1-4-9-3z" fill="#337058"/>
<path transform="translate(928,1233)" d="m0 0h4l-1 4-7 2h-4v-2z" fill="#FEFEFB"/>
<path transform="translate(824,1060)" d="m0 0 4 1-2 4-4 4h-3l1-4z" fill="#549872"/>
<path transform="translate(1422,1050)" d="m0 0 12 2 4 2v1h-9l-5-1v-2z" fill="#08463B"/>
<path transform="translate(848,1042)" d="m0 0 7 1 1 4-5 1-5-5z" fill="#589D75"/>
<path transform="translate(1361,953)" d="m0 0h4l-1 3-8 4h-5l-1-2 11-3z" fill="#6BAB7E"/>
<path transform="translate(707,505)" d="m0 0h7l1 3-1 5-4-2v-2l-3-1z" fill="#226A54"/>
<path transform="translate(1188,409)" d="m0 0h3l3 4-1 2-2-2-4 1-4 6-3 1 2-4z" fill="#316F58"/>
<path transform="translate(1430,379)" d="m0 0 11 3 2 4-7-1-6-3z" fill="#FFFFFE"/>
<path transform="translate(1349,1365)" d="m0 0h5l2 5-1 4-6-5-1-3z" fill="#FEFEFB"/>
<path transform="translate(992,1224)" d="m0 0h6l-3 5-5 1-5-4z" fill="#042D2C"/>
<path transform="translate(1018,1222)" d="m0 0h27v8l-3-6-24-1z" fill="#0D4C40"/>
<path transform="translate(1402,929)" d="m0 0 12 1 1 2h-2l-1 2-8-1z" fill="#0D4C3F"/>
<path transform="translate(535,872)" d="m0 0 3 1-2 1 6 1v1l-16 1-2-2z" fill="#0E4B3F"/>
<path transform="translate(1495,869)" d="m0 0h7l10 3v1h-9l-8-2z" fill="#549B73"/>
<path transform="translate(1510,687)" d="m0 0 2 1-1 11-2 4 1-7h-2v-8z" fill="#01352C"/>
<path transform="translate(1116,531)" d="m0 0h3v8l-4-1v-2l-5 2z" fill="#DAEAD2"/>
<path transform="translate(816,397)" d="m0 0h3l1 7h2v4l-2-1-4-1z" fill="#05322E"/>
<path transform="translate(1246,1025)" d="m0 0 7 1 3 2v2l-5 1-3-2v-2h-2z" fill="#61A67A"/>
<path transform="translate(750,627)" d="m0 0 5 1 4 4v3l-6-2z" fill="#FFFFFE"/>
<path transform="translate(1448,459)" d="m0 0 13 3-2 2h-5l-1 3-4-6z" fill="#549872"/>
<path transform="translate(700,435)" d="m0 0h16l2 2-2 1h-6l-5-2-1 2h-2v-2z" fill="#226A54"/>
<path transform="translate(832,405)" d="m0 0h8l3 3v10l-4-5v-7h-7z" fill="#408566"/>
<path transform="translate(889,409)" d="m0 0h4l2 5h-5l-5 4v-3z" fill="#35755B"/>
<path transform="translate(1255,396)" d="m0 0h4v8h-5v-6z" fill="#165243"/>
<path transform="translate(1263,396)" d="m0 0 6 1 1 1v6h-3l-4-6z" fill="#0A483C"/>
<path transform="translate(1180,301)" d="m0 0 2 1v14l-4 1z" fill="#3F8366"/>
<path transform="translate(1042,108)" d="m0 0 5 4 2 5-9-3 1-5z" fill="#195B4C"/>
<path transform="translate(731 1e3)" d="m0 0v3l-3 4h-2l-2 4h-3l2-4 5-5z" fill="#448869"/>
<path transform="translate(1464,653)" d="m0 0 2 1-5 11h-4l2-5z" fill="#0D453B"/>
<path transform="translate(1379,603)" d="m0 0 2 4-5 7h-4l2-4z" fill="#448769"/>
<path transform="translate(1534,534)" d="m0 0 2 1v6l-4 2-2-3 2-5z" fill="#FEFEFD"/>
<path transform="translate(1051,267)" d="m0 0 2 1-6 5h-2l-2 4h-4l3-1 2-5 3-3z" fill="#FCFDEC"/>
<path transform="translate(1271,1393)" d="m0 0 1 2-4 16h-1v-11l2-6z" fill="#2A6953"/>
<path transform="translate(1078,1368)" d="m0 0 3 4-3 7-4 2 1-5z" fill="#256450"/>
<path transform="translate(717,1350)" d="m0 0h1v8l-3 6h-2l-1 2 1-6z" fill="#35775C"/>
<path transform="translate(1100,1311)" d="m0 0 1 4-2 5-1 7-3 3-1-3z" fill="#3A7B5F"/>
<path transform="translate(1303,1306)" d="m0 0h2l-3 10-2 5h-1v-8l2-5h2z" fill="#22614E"/>
<path transform="translate(1030,1085)" d="m0 0 3 1-1 7h-4l-2-4z" fill="#04342E"/>
<path transform="translate(1496,786)" d="m0 0h2v2l6 1 2 2-15-1v-3z" fill="#1B5F4E"/>
<path transform="translate(1332,602)" d="m0 0 9 2 3 4-5-2-6-1-9 1v-2z" fill="#FCFDEC"/>
<path transform="translate(535,493)" d="m0 0 19 3 5 1v1l-11-1-12-2v5h-1l-1-6z" fill="#579873"/>
<path transform="translate(951,426)" d="m0 0 1 4-3 13-3 4 1-9z" fill="#39795E"/>
<path transform="translate(1141,330)" d="m0 0 5 4 3 3-1 4-6-5z" fill="#5BA076"/>
<path transform="translate(1074,249)" d="m0 0 2 1-8 8-8 6-2-1 10-9z" fill="#34745B"/>
<path transform="translate(942,1444)" d="m0 0 27 1v1l-27 1z" fill="#115447"/>
<path transform="translate(935,1439)" d="m0 0 2 3v4h-12l3-3h7z" fill="#044137"/>
<path transform="translate(1072,1389)" d="m0 0h3v8l-2 1-3-3 1-4z" fill="#01332B"/>
<path transform="translate(569,1315)" d="m0 0 6 5-1 3-5-1-1-1v-5z" fill="#FFFFFE"/>
<path transform="translate(1445,1054)" d="m0 0h11l12 2v1h-13l-10-2z" fill="#4A8F6D"/>
<path transform="translate(728,1024)" d="m0 0h2l-1 4-7 4-5 2v-2l9-6z" fill="#13433B"/>
<path transform="translate(1407,1014)" d="m0 0 4 4 2 4v2 3l-6-7-1-5z" fill="#05312E"/>
<path transform="translate(1373,854)" d="m0 0m-4 1 3 1 2 3 2 2-3 1-8-3z" fill="#60A579"/>
<path transform="translate(653,741)" d="m0 0 2 1v2h3l1 4h-3v7l-2-3z" fill="#30735C"/>
<path transform="translate(963,542)" d="m0 0h3l2 3-1 4-3 1-1 2z" fill="#FCFDEC"/>
<path transform="translate(883,450)" d="m0 0 7 6 3 4-1 4-2-1v-4l-4-2v-3h-2z" fill="#286651"/>
<path transform="translate(760,454)" d="m0 0 6 5 3 5h-3l-7-6z" fill="#155749"/>
<path transform="translate(815,424)" d="m0 0 4 1 1 6-3 1-3-3z" fill="#13433A"/>
<path transform="translate(1475,362)" d="m0 0 3 1-1 4-5 2-2-1 2-4z" fill="#FEFEFC"/>
<path transform="translate(1411,356)" d="m0 0h2v2h3v6h2l-1 2-7-5z" fill="#195949"/>
<path transform="translate(772,261)" d="m0 0 1 4-6 5-6 1 1-2h4l2-6z" fill="#24634F"/>
<path transform="translate(1343,232)" d="m0 0h4l-1 5-2 3h-2v-2l-2-1z" fill="#01352C"/>
<path transform="translate(1440,782)" d="m0 0 5 2-2 5-4 2v-7z" fill="#64A87B"/>
<path transform="translate(894,465)" d="m0 0h2v6l-4 4h-2l1-5z" fill="#FFFFFE"/>
<path transform="translate(1322,434)" d="m0 0 4 1-1 4-2 2h-3l-1-4 3-1z" fill="#FEFEFC"/>
<path transform="translate(819,416)" d="m0 0h6l-4 2-1 2-3 1-2 5-1-4h-7v-1l9-2z" fill="#478A6B"/>
<path transform="translate(898,217)" d="m0 0h1l1 6v8l-2 4-1-5z" fill="#65A97C"/>
<path transform="translate(1078,182)" d="m0 0 2 3 1 7-4-1-1-1v-5z" fill="#02332D"/>
<path transform="translate(677,1407)" d="m0 0 2 1-2 6-4 6-1-4 4-8z" fill="#24634F"/>
<path transform="translate(1561,1336)" d="m0 0h9v1h-6v2l7 1 4 2-9-1-5-1z" fill="#549571"/>
<path transform="translate(1304,1292)" d="m0 0h1l-1 7-2 3h-2v-6z" fill="#135243"/>
<path transform="translate(1575,1224)" d="m0 0 8 1 9 3v1h-9l-4-2v-2z" fill="#307058"/>
<path transform="translate(621,1224)" d="m0 0 11 3 5 2v1l-12-1v-2l-4-2z" fill="#307058"/>
<path transform="translate(856,1052)" d="m0 0v3l-6 5h-2l-1-3 2-2 4-2z" fill="#519571"/>
<path transform="translate(1560,873)" d="m0 0 6 1-1 2-7 1h-10v-1l8-1z" fill="#397B63"/>
<path transform="translate(1456,797)" d="m0 0 2 1-2 4-7 5h-2l1-3 3-2 1-3z" fill="#4A906D"/>
<path transform="translate(1303,729)" d="m0 0h1l1 13-3-1-1-6z" fill="#FEFEFC"/>
<path transform="translate(1351,625)" d="m0 0 9 3v3l-6-1-3-2z" fill="#FEFEFD"/>
<path transform="translate(743,397)" d="m0 0 3 1-4 4-1 10-2 1v-10l3-5z" fill="#185D4C"/>
<path transform="translate(1349,380)" d="m0 0 4 2 1 2 3 1 1 5-4-2-6-7z" fill="#31725A"/>
<path transform="translate(1328,355)" d="m0 0 4 4 3 5 1 8-3-4-5-11z" fill="#FCFDEC"/>
<path transform="translate(1338,332)" d="m0 0 3 4h-3v17h-1l-1-19h2z" fill="#438767"/>
<path transform="translate(1054,266)" d="m0 0 2 1-7 7-6 5-3-1 8-7z" fill="#32735B"/>
<path transform="translate(723,1442)" d="m0 0h8v4h-9l-1-2h2z" fill="#03322C"/>
<path transform="translate(1158,1365)" d="m0 0h2l2 5v5l-5-5z" fill="#FEFEFB"/>
<path transform="translate(1349,1351)" d="m0 0 2 3v2h-25v-1l22-1z" fill="#4B8E6D"/>
<path transform="translate(782,947)" d="m0 0 5 2-2 4-2 5h-1l-1-7z" fill="#1B4D41"/>
<path transform="translate(1414,930)" d="m0 0 8 1 7 3-1 2-6 1 1-3-9-3z" fill="#478969"/>
<path transform="translate(941,849)" d="m0 0 2 1-2 5-5 3-3-1z" fill="#052C2C"/>
<path transform="translate(1578,783)" d="m0 0 4 1-1 4-12 1 2-1v-2l7-1z" fill="#104A3F"/>
<path transform="translate(1030,775)" d="m0 0 3 2-5 3h-2l-2 4-2 2-3-1 6-6h2v-2z" fill="#042C2B"/>
<path transform="translate(747,436)" d="m0 0 1 2-1 2h2l1 6-4-1v-2h-2v-4h2z" fill="#084238"/>
<path transform="translate(1091,1442)" d="m0 0 8 1v4l-8-1-1-2z" fill="#03332D"/>
<path transform="translate(979,1247)" d="m0 0 2 3-2 3h-2v5l-4 2 2-6z" fill="#2B6551"/>
<path transform="translate(951,1225)" d="m0 0 13 1v1l-9 1h-12l4-2z" fill="#01332B"/>
<path transform="translate(1287,1028)" d="m0 0 5 3v4l-3 1-3-5z" fill="#5EA479"/>
<path transform="translate(1421,993)" d="m0 0 6 2 9 6 1 2-5-2-9-5-2-1z" fill="#4C926E"/>
<path transform="translate(777,966)" d="m0 0 1 2-6 12h-1l1-7 3-6z" fill="#286751"/>
<path transform="translate(565,863)" d="m0 0h6l1 2-4 3-6-1 2-1z" fill="#01332B"/>
<path transform="translate(1364,674)" d="m0 0 3 4 2-1-1 6h-3l-2-6h-2v-2z" fill="#5B9D76"/>
<path transform="translate(610,653)" d="m0 0h3v3l4 1 1 5-3 1-5-8z" fill="#478B6B"/>
<path transform="translate(1192,448)" d="m0 0 3 1-3 5-7 5 2-4z" fill="#3B795E"/>
<path transform="translate(1184,430)" d="m0 0 6 1 2-1-1 5h-5l-2-2z" fill="#14443C"/>
<path transform="translate(1424,374)" d="m0 0h5l1 5-3 1-3-2z" fill="#FFFFFE"/>
<path transform="translate(632,1333)" d="m0 0 10 2 2 2h-12z" fill="#296853"/>
<path transform="translate(683,968)" d="m0 0 5 1 2 1v2h-5-2l-2 1-3-3z" fill="#6FAF80"/>
<path transform="translate(663,842)" d="m0 0h14v2l-12 1z" fill="#03302C"/>
<path transform="translate(1026,777)" d="m0 0 1 2-7 6-2 3-4-1 6-5 4-4z" fill="#073C34"/>
<path transform="translate(1604,753)" d="m0 0 1 3-5 7-3-1v-3h2l1-3 4-1z" fill="#5EA479"/>
<path transform="translate(582,580)" d="m0 0 10 5 1 3-9-3z" fill="#1B4D42"/>
<path transform="translate(1331,522)" d="m0 0 1 4v8l-2 6h-1v-10z" fill="#65A87B"/>
<path transform="translate(1265,424)" d="m0 0h5v6l-2 2-4-1 3-4-2-1z" fill="#073733"/>
<path transform="translate(607,361)" d="m0 0 4 1 5 4v2l-4-1-5-4z" fill="#296D57"/>
<path transform="translate(1259,310)" d="m0 0 3 1-3 1-1 3h-5v-2l-2-1z" fill="#4B906E"/>
<path transform="translate(1285,1352)" d="m0 0 1 2-2 6-3 1v-7z" fill="#032E2B"/>
<path transform="translate(571,1229)" d="m0 0h9l-1 2-10 3z" fill="#FEFEFC"/>
<path transform="translate(821,1054)" d="m0 0h2l-1 4-4 4h-3l2-5z" fill="#FFFFFE"/>
<path transform="translate(1048,1043)" d="m0 0h3v4l-2 2-1 3-4-1z" fill="#4B906E"/>
<path transform="translate(649,999)" d="m0 0 2 1-7 7-4 2 2-4 5-5z" fill="#4E9470"/>
<path transform="translate(609,960)" d="m0 0h11l-4 2v2h-5z" fill="#0C473D"/>
<path transform="translate(607,957)" d="m0 0 3 1 15 2v1l-16-1 1 3h-2v-4l-2-1z" fill="#448769"/>
<path transform="translate(1271,932)" d="m0 0h2l-2 4-5 3h-5l3-3z" fill="#184B40"/>
<path transform="translate(840,931)" d="m0 0 2 1-5 6 4 1h-9v-2z" fill="#115143"/>
<path transform="translate(556,901)" d="m0 0 12 1 3 2h-13z" fill="#428468"/>
<path transform="translate(614,890)" d="m0 0h5l-3 4h-6l-1-3z" fill="#559C74"/>
<path transform="translate(1283,608)" d="m0 0h5l3 3-1 1h-7z" fill="#3B7E63"/>
<path transform="translate(1514,562)" d="m0 0h2l-1 4-7 6v-3z" fill="#0F3F38"/>
<path transform="translate(963,535)" d="m0 0h1l-1 17h-1l-1-13z" fill="#31735B"/>
<path transform="translate(967,445)" d="m0 0 1 3-2 12h-1l-1-12z" fill="#2F7058"/>
<path transform="translate(740,436)" d="m0 0 3 3v4l3 1h-2l-1 3-2-6-7-1 6-2z" fill="#4A8D6C"/>
<path transform="translate(743,346)" d="m0 0h1v9l-3 8h-2l3-9z" fill="#3B8063"/>
<path transform="translate(1169,281)" d="m0 0 7 3 3 5-1 2-2-4-5-2z" fill="#74B383"/>
<path transform="translate(1286,1442)" d="m0 0 7 1v3h-8z" fill="#01322B"/>
<path transform="translate(604,1323)" d="m0 0 12 1v1l-9 1-2 1v3h-2l-1-4z" fill="#135244"/>
<path transform="translate(1521,1321)" d="m0 0h2l3 6-4 1-2-2z" fill="#FFFFFE"/>
<path transform="translate(822,1047)" d="m0 0 1 2 2 1-8 6v-3z" fill="#73B282"/>
<path transform="translate(1278,1024)" d="m0 0 3 1-3 3-2 1-1 7-2-1 1-7z" fill="#72B182"/>
<path transform="translate(603 1e3)" d="m0 0h2v2h-2l-1 3-3 1-2 1-2-2 2-3z" fill="#01342B"/>
<path transform="translate(1379,941)" d="m0 0h5l-2 2-5 3-4 1v-3l2 1 1-3z" fill="#63A77B"/>
<path transform="translate(723,929)" d="m0 0h9v3h-11v-2z" fill="#042C2B"/>
<path transform="translate(918,867)" d="m0 0 2 1-11 11-2-2z" fill="#083E37"/>
<path transform="translate(1429,479)" d="m0 0h6l-2 1-1 4h-6z" fill="#104D40"/>
<path transform="translate(773,464)" d="m0 0 5 5 4 6h-4l-1-5-3-1z" fill="#448868"/>
<path transform="translate(1331,396)" d="m0 0 6 2v-2l4 2 1 4-10-4z" fill="#226A54"/>
<path transform="translate(1378,367)" d="m0 0 4 2v9l-1-2h-2z" fill="#216953"/>
<path transform="translate(1284,361)" d="m0 0 5 5-1 4h-2l-2-2z" fill="#044036"/>
<path transform="translate(1235,333)" d="m0 0h3l-1 4-2 1h-6l2-3z" fill="#539772"/>
<path transform="translate(918,331)" d="m0 0 3 1v5l-3 1-2-2v-4z" fill="#FEFEFC"/>
<path transform="translate(880,257)" d="m0 0 7 1v1l-10 2-4 3 2-5z" fill="#559772"/>
<path transform="translate(1330,248)" d="m0 0 1 3 3 1h-3v6l-4-2 1-4h2z" fill="#3F8266"/>
<path transform="translate(1040,1075)" d="m0 0h3l1 5-5 1-1-4z" fill="#0A3D33"/>
<path transform="translate(1069,997)" d="m0 0 5 1-1 6-5-1z" fill="#529671"/>
<path transform="translate(720,927)" d="m0 0h9l6 1v1l-15 1z" fill="#347057"/>
<path transform="translate(1498,857)" d="m0 0 9 2 6 2v1l-12-1z" fill="#0A463B"/>
<path transform="translate(474,668)" d="m0 0 7 1 2 3-1 3-8-6z" fill="#438869"/>
<path transform="translate(750,640)" d="m0 0h2l3 4-1 3-4-2-3-3h2z" fill="#589D75"/>
<path transform="translate(1461,465)" d="m0 0 4 1v6l-3 3v-6l-2-1z" fill="#FEFEFC"/>
<path transform="translate(754,444)" d="m0 0 7 6 5 6-4-2-8-7z" fill="#559672"/>
</svg>
